<!-- Created with Inkscape (http://www.inkscape.org/) -->
<svg xmlns:rdf="http://www.w3.org/1999/02/22-rdf-syntax-ns#" xmlns="http://www.w3.org/2000/svg" height="79.116mm" width="56.276mm" version="1.1" xmlns:cc="http://creativecommons.org/ns#" xmlns:xlink="http://www.w3.org/1999/xlink" viewBox="0 0 199.40379 280.33246" xmlns:dc="http://purl.org/dc/elements/1.1/">
  <defs>
    <style><![CDATA[
      .prototype { display: none; }
      .prototype:target { display: inline; }
      ]]></style>
    </defs>
 <g transform="translate(-131.48 -154.2)" class="prototype" id="id1">
  <path style="fill:#3c3c3b" d="m171.38 388.33-4.0325-1.38 4.0325-1.3775v2.7575z"/>
  <path style="fill:#3c3c3b" d="m177.47 385.57 4.0275 1.3788-4.0275 1.3788v-2.7575z"/>
  <path style="fill:#f5f5f5" d="m330.88 434.53h-199.4v-280.33h199.4v280.33z"/>
  <path style="fill:#fff" d="m315.75 417.03h-169.14v-223.31h169.14v223.31z"/>
  <path style="fill:#3c3c3b" d="m215.23 179.48h1.7962l-0.925-6.1912h-0.019l-0.8525 6.1912zm0.01-8.36h1.6562l1.9363 11.715h-1.2988l-0.3325-2.2362h-2.1212l-0.3088 2.2362h-1.31l1.7788-11.715z"/>
  <path style="fill:#3c3c3b" d="m223.41 173.99c0-0.9025-0.08-1.4238-0.2438-1.565-0.1587-0.1425-0.3962-0.21375-0.7012-0.21375h-0.8638v3.9538h0.8775c0.265 0 0.4613-0.0512 0.585-0.1525 0.1238-0.1025 0.2125-0.29625 0.2688-0.58625 0.051-0.28875 0.077-0.74 0.077-1.3575v-0.0788zm-3.1875-2.87h2.455c0.6975 0 1.1975 0.14375 1.5062 0.43375 0.305 0.2875 0.49 0.7775 0.5525 1.47 0.025 0.28375 0.04 0.7275 0.04 1.3288 0 0.60125-0.08 1.105-0.2375 1.5138-0.1575 0.4075-0.4362 0.67125-0.835 0.7925 0.2913 0.0488 0.5138 0.2025 0.6663 0.46125 0.1512 0.26125 0.2562 0.6725 0.3162 1.2375 0.062 0.56625 0.095 1.4075 0.095 2.5238 0 1.115 0.035 1.7675 0.1075 1.9538h-1.3712c-0.072-0.1425-0.1075-1.4575-0.1075-3.9462 0-0.84-0.08-1.3275-0.245-1.4612-0.165-0.13625-0.4138-0.2025-0.7463-0.2025l-0.8175-0.0475v5.6575h-1.3787v-11.715z"/>
  <path style="fill:#3c3c3b" d="m225.8 171.12h3.8675v1.145h-1.2063v10.57h-1.37v-10.57h-1.2912v-1.145z"/>
  <path style="fill:#3c3c3b" d="m230.92 171.12h1.3775v11.715h-1.3775v-11.715z"/>
  <path style="fill:#3c3c3b" d="m234.18 174.5c0-0.8875 0.075-1.5388 0.22-1.9562 0.1463-0.4175 0.3063-0.72375 0.48-0.92 0.3763-0.42625 0.9263-0.64 1.65-0.645 1.0113 0.005 1.6638 0.45125 1.9563 1.3375 0.1675 0.51125 0.2537 1.1888 0.2537 2.0375v1.2988h-1.3512v-1.305c0-0.75-0.04-1.2575-0.1238-1.5212-0.081-0.26375-0.1825-0.43875-0.2962-0.52625-0.1138-0.0862-0.2625-0.13-0.4388-0.13-0.3675 0-0.6237 0.17375-0.7612 0.5225-0.1413 0.34875-0.21 0.8975-0.21 1.6475v5.0725c0 0.8875 0.064 1.5075 0.19 1.8588 0.1237 0.35375 0.37 0.53125 0.7312 0.53125 0.3625 0 0.6025-0.17875 0.725-0.53375s0.1838-0.975 0.1838-1.8638v-1.2975h1.3637v1.2838c0 1.23-0.1675 2.1338-0.5012 2.7125-0.3375 0.58-0.92 0.86875-1.7538 0.86875-0.8337 0-1.4287-0.29875-1.785-0.895-0.355-0.59625-0.5325-1.4962-0.5325-2.6988v-4.8788z"/>
  <path style="fill:#3c3c3b" d="m240.43 171.12h1.3775v10.578h2.1625v1.1375h-3.54v-11.715z"/>
  <path style="fill:#3c3c3b" d="m245.17 171.12h3.5025v1.145h-2.125v4.0062h2.01v1.145h-2.01v4.2738h2.15v1.145h-3.5275v-11.715z"/>
  <path style="fill:#9c9b9b" d="m187.11 226.32h-27.525v-6.51h27.525v6.51z"/>
  <path style="fill:#9c9b9b" d="m224.18 226.32h-27.525v-6.51h27.525v6.51z"/>
  <path style="fill:#9c9b9b" d="m191.2 219.82h0.6737l-1.6162 6.4838h-0.6688l1.6113-6.4838z"/>
  <path style="fill:#9c9b9b" d="m194.07 219.82h0.6737l-1.6137 6.4838h-0.6688l1.6088-6.4838z"/>
  <path style="fill:#575756" d="m193.75 261.58h-34.975v-25.376h34.975v25.376z"/>
  <path style="fill:#b1b1b1" d="m313.39 269.85h-27.62v-25.949h27.62v25.949z"/>
  <path style="fill:#b1b1b1" d="m313.39 299.94h-27.62v-25.948h27.62v25.948z"/>
  <path style="fill:#b1b1b1" d="m313.39 330.04h-27.62v-25.949h27.62v25.949z"/>
  <path style="fill:#b1b1b1" d="m313.39 360.13h-27.62v-25.95h27.62v25.95z"/>
  <path style="fill:#575756" d="m193.75 291.22h-34.975v-25.374h34.975v25.374z"/>
  <path style="fill:#d9d9d9" d="m181.51 357.04h-1.4063c0-2.3725-1.9887-4.3025-4.4362-4.3025-2.4488 0-4.4375 1.93-4.4375 4.3025h-1.4063c0-3.1512 2.6213-5.71 5.8438-5.71 3.2212 0 5.8425 2.5588 5.8425 5.71"/>
  <path style="fill:#d9d9d9" d="m175.67 344.56c-1.3537 0-2.4487 1.1012-2.4487 2.4525 0 1.35 1.095 2.4475 2.4487 2.4475 1.3513 0 2.45-1.0975 2.45-2.4475 0-1.3512-1.1012-2.4525-2.45-2.4525m0 6.3088c-2.1237 0-3.855-1.7312-3.855-3.8562 0-2.1275 1.7288-3.8575 3.855-3.8575 2.1275 0 3.8563 1.73 3.8563 3.8575 0 2.125-1.7288 3.8562-3.8563 3.8562"/>
  <path style="fill:#9c9b9b" d="m201.98 236.74c0-0.45875 0.3675-0.83 0.825-0.83 0.4587 0 0.8312 0.37125 0.8312 0.83 0 0.4575-0.3725 0.8275-0.8312 0.8275-0.4575 0-0.825-0.37-0.825-0.8275"/>
  <path style="fill:#9c9b9b" d="m204.65 236.74c0-0.45875 0.3725-0.83 0.83-0.83 0.4588 0 0.8288 0.37125 0.8288 0.83 0 0.4575-0.37 0.8275-0.8288 0.8275-0.4575 0-0.83-0.37-0.83-0.8275"/>
  <path style="fill:#9c9b9b" d="m207.33 236.74c0-0.45875 0.37-0.83 0.8312-0.83 0.4575 0 0.83 0.37125 0.83 0.83 0 0.4575-0.3725 0.8275-0.83 0.8275-0.4612 0-0.8312-0.37-0.8312-0.8275"/>
  <path style="fill:#9c9b9b" d="m210.01 236.74c0-0.45875 0.3713-0.83 0.8288-0.83 0.4587 0 0.8287 0.37125 0.8287 0.83 0 0.4575-0.37 0.8275-0.8287 0.8275-0.4575 0-0.8288-0.37-0.8288-0.8275"/>
  <path style="fill:#9c9b9b" d="m212.69 236.74c0-0.45875 0.37-0.83 0.83-0.83 0.4588 0 0.8263 0.37125 0.8263 0.83 0 0.4575-0.3675 0.8275-0.8263 0.8275-0.46 0-0.83-0.37-0.83-0.8275"/>
  <path style="fill:#9c9b9b" d="m215.37 236.74c0-0.45875 0.37-0.83 0.8312-0.83 0.4575 0 0.8275 0.37125 0.8275 0.83 0 0.4575-0.37 0.8275-0.8275 0.8275-0.4612 0-0.8312-0.37-0.8312-0.8275"/>
  <path style="fill:#9c9b9b" d="m218.63 236.74c0-0.45875 0.3725-0.83 0.8275-0.83 0.4587 0 0.8312 0.37125 0.8312 0.83 0 0.4575-0.3725 0.8275-0.8312 0.8275-0.455 0-0.8275-0.37-0.8275-0.8275"/>
  <path style="fill:#9c9b9b" d="m221.31 236.74c0-0.45875 0.3725-0.83 0.8288-0.83 0.46 0 0.8275 0.37125 0.8275 0.83 0 0.4575-0.3675 0.8275-0.8275 0.8275-0.4563 0-0.8288-0.37-0.8288-0.8275"/>
  <path style="fill:#9c9b9b" d="m223.99 236.74c0-0.45875 0.3725-0.83 0.8287-0.83 0.4613 0 0.8313 0.37125 0.8313 0.83 0 0.4575-0.37 0.8275-0.8313 0.8275-0.4562 0-0.8287-0.37-0.8287-0.8275"/>
  <path style="fill:#9c9b9b" d="m226.67 236.74c0-0.45875 0.37-0.83 0.8275-0.83 0.4562 0 0.8287 0.37125 0.8287 0.83 0 0.4575-0.3725 0.8275-0.8287 0.8275-0.4575 0-0.8275-0.37-0.8275-0.8275"/>
  <path style="fill:#9c9b9b" d="m229.35 236.74c0-0.45875 0.37-0.83 0.8288-0.83 0.4575 0 0.8275 0.37125 0.8275 0.83 0 0.4575-0.37 0.8275-0.8275 0.8275-0.4588 0-0.8288-0.37-0.8288-0.8275"/>
  <path style="fill:#9c9b9b" d="m232.02 236.74c0-0.45875 0.3737-0.83 0.8337-0.83 0.455 0 0.8263 0.37125 0.8263 0.83 0 0.4575-0.3713 0.8275-0.8263 0.8275-0.46 0-0.8337-0.37-0.8337-0.8275"/>
  <path style="fill:#9c9b9b" d="m235.29 236.74c0-0.45875 0.3725-0.83 0.83-0.83 0.4588 0 0.8288 0.37125 0.8288 0.83 0 0.4575-0.37 0.8275-0.8288 0.8275-0.4575 0-0.83-0.37-0.83-0.8275"/>
  <path style="fill:#9c9b9b" d="m237.97 236.74c0-0.45875 0.3725-0.83 0.8288-0.83 0.4575 0 0.8287 0.37125 0.8287 0.83 0 0.4575-0.3712 0.8275-0.8287 0.8275-0.4563 0-0.8288-0.37-0.8288-0.8275"/>
  <path style="fill:#9c9b9b" d="m240.64 236.74c0-0.45875 0.3725-0.83 0.83-0.83 0.4588 0 0.8288 0.37125 0.8288 0.83 0 0.4575-0.37 0.8275-0.8288 0.8275-0.4575 0-0.83-0.37-0.83-0.8275"/>
  <path style="fill:#9c9b9b" d="m243.32 236.74c0-0.45875 0.37-0.83 0.8287-0.83 0.4575 0 0.83 0.37125 0.83 0.83 0 0.4575-0.3725 0.8275-0.83 0.8275-0.4587 0-0.8287-0.37-0.8287-0.8275"/>
  <path style="fill:#9c9b9b" d="m246 236.74c0-0.45875 0.3725-0.83 0.8313-0.83 0.4575 0 0.8275 0.37125 0.8275 0.83 0 0.4575-0.37 0.8275-0.8275 0.8275-0.4588 0-0.8313-0.37-0.8313-0.8275"/>
  <path style="fill:#9c9b9b" d="m248.68 236.74c0-0.45875 0.3725-0.83 0.83-0.83 0.4563 0 0.8288 0.37125 0.8288 0.83 0 0.4575-0.3725 0.8275-0.8288 0.8275-0.4575 0-0.83-0.37-0.83-0.8275"/>
  <path style="fill:#9c9b9b" d="m251.94 236.74c0-0.45875 0.3725-0.83 0.8288-0.83 0.4575 0 0.83 0.37125 0.83 0.83 0 0.4575-0.3725 0.8275-0.83 0.8275-0.4563 0-0.8288-0.37-0.8288-0.8275"/>
  <path style="fill:#9c9b9b" d="m254.62 236.74c0-0.45875 0.3712-0.83 0.83-0.83 0.4562 0 0.8287 0.37125 0.8287 0.83 0 0.4575-0.3725 0.8275-0.8287 0.8275-0.4588 0-0.83-0.37-0.83-0.8275"/>
  <path style="fill:#9c9b9b" d="m257.3 236.74c0-0.45875 0.3725-0.83 0.8275-0.83 0.4613 0 0.8313 0.37125 0.8313 0.83 0 0.4575-0.37 0.8275-0.8313 0.8275-0.455 0-0.8275-0.37-0.8275-0.8275"/>
  <path style="fill:#9c9b9b" d="m259.98 236.74c0-0.45875 0.37-0.83 0.8287-0.83 0.455 0 0.8275 0.37125 0.8275 0.83 0 0.4575-0.3725 0.8275-0.8275 0.8275-0.4587 0-0.8287-0.37-0.8287-0.8275"/>
  <path style="fill:#9c9b9b" d="m262.66 236.74c0-0.45875 0.3738-0.83 0.8313-0.83 0.455 0 0.8287 0.37125 0.8287 0.83 0 0.4575-0.3737 0.8275-0.8287 0.8275-0.4575 0-0.8313-0.37-0.8313-0.8275"/>
  <path style="fill:#9c9b9b" d="m265.34 236.74c0-0.45875 0.375-0.83 0.8325-0.83 0.4563 0 0.8288 0.37125 0.8288 0.83 0 0.4575-0.3725 0.8275-0.8288 0.8275-0.4575 0-0.8325-0.37-0.8325-0.8275"/>
  <path style="fill:#9c9b9b" d="m201.98 377.3c0-0.4575 0.3675-0.8275 0.825-0.8275 0.4587 0 0.8312 0.37 0.8312 0.8275 0 0.45875-0.3725 0.83-0.8312 0.83-0.4575 0-0.825-0.37125-0.825-0.83"/>
  <path style="fill:#9c9b9b" d="m204.65 377.3c0-0.4575 0.3725-0.8275 0.83-0.8275 0.4588 0 0.8288 0.37 0.8288 0.8275 0 0.45875-0.37 0.83-0.8288 0.83-0.4575 0-0.83-0.37125-0.83-0.83"/>
  <path style="fill:#9c9b9b" d="m207.33 377.3c0-0.4575 0.37-0.8275 0.8312-0.8275 0.4575 0 0.83 0.37 0.83 0.8275 0 0.45875-0.3725 0.83-0.83 0.83-0.4612 0-0.8312-0.37125-0.8312-0.83"/>
  <path style="fill:#9c9b9b" d="m210.01 377.3c0-0.4575 0.3713-0.8275 0.8288-0.8275 0.4587 0 0.8287 0.37 0.8287 0.8275 0 0.45875-0.37 0.83-0.8287 0.83-0.4575 0-0.8288-0.37125-0.8288-0.83"/>
  <path style="fill:#9c9b9b" d="m212.69 377.3c0-0.4575 0.37-0.8275 0.83-0.8275 0.4588 0 0.8263 0.37 0.8263 0.8275 0 0.45875-0.3675 0.83-0.8263 0.83-0.46 0-0.83-0.37125-0.83-0.83"/>
  <path style="fill:#9c9b9b" d="m215.37 377.3c0-0.4575 0.37-0.8275 0.8312-0.8275 0.4575 0 0.8275 0.37 0.8275 0.8275 0 0.45875-0.37 0.83-0.8275 0.83-0.4612 0-0.8312-0.37125-0.8312-0.83"/>
  <path style="fill:#9c9b9b" d="m218.63 377.3c0-0.4575 0.3725-0.8275 0.8275-0.8275 0.4587 0 0.8312 0.37 0.8312 0.8275 0 0.45875-0.3725 0.83-0.8312 0.83-0.455 0-0.8275-0.37125-0.8275-0.83"/>
  <path style="fill:#9c9b9b" d="m221.31 377.3c0-0.4575 0.3725-0.8275 0.8288-0.8275 0.46 0 0.8275 0.37 0.8275 0.8275 0 0.45875-0.3675 0.83-0.8275 0.83-0.4563 0-0.8288-0.37125-0.8288-0.83"/>
  <path style="fill:#9c9b9b" d="m223.99 377.3c0-0.4575 0.3725-0.8275 0.8287-0.8275 0.4613 0 0.8313 0.37 0.8313 0.8275 0 0.45875-0.37 0.83-0.8313 0.83-0.4562 0-0.8287-0.37125-0.8287-0.83"/>
  <path style="fill:#9c9b9b" d="m226.67 377.3c0-0.4575 0.37-0.8275 0.8275-0.8275 0.4562 0 0.8287 0.37 0.8287 0.8275 0 0.45875-0.3725 0.83-0.8287 0.83-0.4575 0-0.8275-0.37125-0.8275-0.83"/>
  <path style="fill:#9c9b9b" d="m229.35 377.3c0-0.4575 0.37-0.8275 0.8288-0.8275 0.4575 0 0.8275 0.37 0.8275 0.8275 0 0.45875-0.37 0.83-0.8275 0.83-0.4588 0-0.8288-0.37125-0.8288-0.83"/>
  <path style="fill:#9c9b9b" d="m232.02 377.3c0-0.4575 0.3737-0.8275 0.8337-0.8275 0.455 0 0.8263 0.37 0.8263 0.8275 0 0.45875-0.3713 0.83-0.8263 0.83-0.46 0-0.8337-0.37125-0.8337-0.83"/>
  <path style="fill:#9c9b9b" d="m235.29 377.3c0-0.4575 0.3725-0.8275 0.83-0.8275 0.4588 0 0.8288 0.37 0.8288 0.8275 0 0.45875-0.37 0.83-0.8288 0.83-0.4575 0-0.83-0.37125-0.83-0.83"/>
  <path style="fill:#9c9b9b" d="m237.97 377.3c0-0.4575 0.3725-0.8275 0.8288-0.8275 0.4575 0 0.8287 0.37 0.8287 0.8275 0 0.45875-0.3712 0.83-0.8287 0.83-0.4563 0-0.8288-0.37125-0.8288-0.83"/>
  <path style="fill:#9c9b9b" d="m240.64 377.3c0-0.4575 0.3725-0.8275 0.83-0.8275 0.4588 0 0.8288 0.37 0.8288 0.8275 0 0.45875-0.37 0.83-0.8288 0.83-0.4575 0-0.83-0.37125-0.83-0.83"/>
  <path style="fill:#9c9b9b" d="m243.32 377.3c0-0.4575 0.37-0.8275 0.8287-0.8275 0.4575 0 0.83 0.37 0.83 0.8275 0 0.45875-0.3725 0.83-0.83 0.83-0.4587 0-0.8287-0.37125-0.8287-0.83"/>
  <path style="fill:#9c9b9b" d="m246 377.3c0-0.4575 0.3725-0.8275 0.8313-0.8275 0.4575 0 0.8275 0.37 0.8275 0.8275 0 0.45875-0.37 0.83-0.8275 0.83-0.4588 0-0.8313-0.37125-0.8313-0.83"/>
  <path style="fill:#9c9b9b" d="m248.68 377.3c0-0.4575 0.3725-0.8275 0.83-0.8275 0.4563 0 0.8288 0.37 0.8288 0.8275 0 0.45875-0.3725 0.83-0.8288 0.83-0.4575 0-0.83-0.37125-0.83-0.83"/>
  <path style="fill:#9c9b9b" d="m251.94 377.3c0-0.4575 0.3725-0.8275 0.8288-0.8275 0.4575 0 0.83 0.37 0.83 0.8275 0 0.45875-0.3725 0.83-0.83 0.83-0.4563 0-0.8288-0.37125-0.8288-0.83"/>
  <path style="fill:#9c9b9b" d="m254.62 377.3c0-0.4575 0.3712-0.8275 0.83-0.8275 0.4562 0 0.8287 0.37 0.8287 0.8275 0 0.45875-0.3725 0.83-0.8287 0.83-0.4588 0-0.83-0.37125-0.83-0.83"/>
  <path style="fill:#9c9b9b" d="m257.3 377.3c0-0.4575 0.3725-0.8275 0.8275-0.8275 0.4613 0 0.8313 0.37 0.8313 0.8275 0 0.45875-0.37 0.83-0.8313 0.83-0.455 0-0.8275-0.37125-0.8275-0.83"/>
  <path style="fill:#9c9b9b" d="m259.98 377.3c0-0.4575 0.37-0.8275 0.8287-0.8275 0.455 0 0.8275 0.37 0.8275 0.8275 0 0.45875-0.3725 0.83-0.8275 0.83-0.4587 0-0.8287-0.37125-0.8287-0.83"/>
  <path style="fill:#9c9b9b" d="m262.66 377.3c0-0.4575 0.3738-0.8275 0.8313-0.8275 0.455 0 0.8287 0.37 0.8287 0.8275 0 0.45875-0.3737 0.83-0.8287 0.83-0.4575 0-0.8313-0.37125-0.8313-0.83"/>
  <path style="fill:#9c9b9b" d="m265.34 377.3c0-0.4575 0.375-0.8275 0.8325-0.8275 0.4563 0 0.8288 0.37 0.8288 0.8275 0 0.45875-0.3725 0.83-0.8288 0.83-0.4575 0-0.8325-0.37125-0.8325-0.83"/>
  <path style="fill:#b1b1b1" d="m266.85 249.15h-61.706v-3.9962h61.706v3.9962z"/>
  <path style="fill:#b1b1b1" d="m266.85 255.21h-61.706v-3.9938h61.706v3.9938z"/>
  <path style="fill:#b1b1b1" d="m266.85 261.26h-61.706v-3.9938h61.706v3.9938z"/>
  <path style="fill:#b1b1b1" d="m266.85 267h-61.706v-3.995h61.706v3.995z"/>
  <path style="fill:#b1b1b1" d="m266.85 273.05h-61.706v-3.9938h61.706v3.9938z"/>
  <path style="fill:#b1b1b1" d="m266.85 279.11h-61.706v-3.9938h61.706v3.9938z"/>
  <path style="fill:#b1b1b1" d="m266.85 284.84h-61.706v-3.9938h61.706v3.9938z"/>
  <path style="fill:#b1b1b1" d="m266.85 290.9h-61.706v-3.9925h61.706v3.9925z"/>
  <path style="fill:#b1b1b1" d="m266.85 296.95h-61.706v-3.9962h61.706v3.9962z"/>
  <path style="fill:#b1b1b1" d="m266.85 302.69h-61.706v-3.995h61.706v3.995z"/>
  <path style="fill:#b1b1b1" d="m266.85 308.75h-61.706v-3.9962h61.706v3.9962z"/>
  <path style="fill:#b1b1b1" d="m266.85 314.8h-61.706v-3.995h61.706v3.995z"/>
  <path style="fill:#b1b1b1" d="m266.85 320.53h-61.706v-3.995h61.706v3.995z"/>
  <path style="fill:#b1b1b1" d="m266.85 326.59h-61.706v-3.9975h61.706v3.9975z"/>
  <path style="fill:#b1b1b1" d="m266.85 332.64h-61.706v-3.995h61.706v3.995z"/>
  <path style="fill:#b1b1b1" d="m266.85 338.38h-61.706v-3.995h61.706v3.995z"/>
  <path style="fill:#b1b1b1" d="m266.85 344.43h-61.706v-3.9962h61.706v3.9962z"/>
  <path style="fill:#b1b1b1" d="m266.85 350.49h-61.706v-3.9962h61.706v3.9962z"/>
  <path style="fill:#b1b1b1" d="m266.85 356.22h-61.706v-3.995h61.706v3.995z"/>
  <path style="fill:#b1b1b1" d="m266.85 362.28h-61.706v-3.995h61.706v3.995z"/>
  <path style="fill:#b1b1b1" d="m266.85 368.33h-61.706v-3.995h61.706v3.995z"/>
  <path style="fill:#575756" d="m193.67 366.21h-35.205v-3.9962h35.205v3.9962z"/>
  <path style="fill:#575756" d="m193.67 372.26h-35.205v-3.9962h35.205v3.9962z"/>
  <path style="fill:#575756" d="m193.67 378.32h-35.205v-3.995h35.205v3.995z"/>
  <path style="fill:#f5f5f5" d="m175.42 280.77v-4.1125l2.9475 2.055-2.9475 2.0575zm1.15-6.8425c-2.6413 0-4.7863 2.1425-4.7863 4.785 0 2.6438 2.145 4.7875 4.7863 4.7875 2.6437 0 4.785-2.1438 4.785-4.7875 0-2.6425-2.1413-4.785-4.785-4.785"/>
  <path style="fill:#f5f5f5" d="m175.42 276.66v4.1125"/>
  <path style="fill:#f5f5f5" d="m174.77 248.87 2.9475-2.0562v4.1138l-2.9475-2.0575zm-2.9875 0c0 2.6425 2.1425 4.7875 4.7862 4.7875 2.6425 0 4.7863-2.145 4.7863-4.7875 0-2.64-2.1438-4.7838-4.7863-4.7838-2.6437 0-4.7862 2.1438-4.7862 4.7838"/>
  <path style="fill:#f5f5f5" d="m177.72 246.81v4.1138"/>
  <path style="fill:#d9d9d9" d="m187.67 356.99 3.7125-5.4388c0.1713-0.25 0.105-0.59375-0.145-0.76625l-0.455-0.31125c-0.2525-0.17-0.5962-0.10625-0.7687 0.145l-3.07 4.4975-1.3463-0.96375c-0.2475-0.17625-0.5925-0.12-0.7687 0.13125l-0.32 0.44625c-0.1788 0.25125-0.1213 0.59375 0.1262 0.77125l2.2763 1.6212c0.245 0.17875 0.5862 0.1175 0.7587-0.1325"/>
 </g>
 <g transform="translate(-286.66 -11.423)" class="prototype" id="id2">
  <path d="m486.06 292.25h-200.68v-280.83h200.68v280.83z" style="fill:#f5f5f5"/>
  <path d="m469.91 275.48h-169.14v-223.31h169.14v223.31z" style="fill:#fff"/>
  <rect style="fill:#6c6d6b" height="161.27" width="157.07" y="101.93" x="307.41"/>
  <path style="fill:#3c3c3b" d="m376.09 29.565h1.2975l-1.7775 11.715h-1.605l-1.95-11.715h1.3112l0.77881 4.9588 0.6662 4.36h0.026l0.5788-4.36 0.6737-4.9588z"/>
  <path d="m378.84 29.565h1.3787v11.715h-1.3787v-11.715z" style="fill:#3c3c3b"/>
  <path style="fill:#3c3c3b" d="m385.43 32.714c0-0.7325-0.085-1.2588-0.2588-1.5775-0.1737-0.32-0.4562-0.48-0.8525-0.48h-0.705v9.5113h0.705c0.2663 0 0.475-0.0538 0.625-0.16 0.3238-0.23 0.4863-0.865 0.4863-1.9025v-5.3913zm-3.1875-3.1488h2.2037c0.8963 0 1.5138 0.27625 1.8488 0.82875 0.33871 0.5525 0.50751 1.3363 0.50751 2.3525l0.01 5.1463c0 1.2012-0.185 2.0662-0.55251 2.595-0.3688 0.52875-0.9888 0.79251-1.8563 0.79251h-2.1575v-11.715z"/>
  <path style="fill:#3c3c3b" d="m388.56 29.565h3.5013v1.145h-2.1225v4.0063h2.01v1.145h-2.01v4.2738h2.1487v1.145h-3.5275v-11.715z"/>
  <path style="fill:#3c3c3b" d="m396.82 32.667c0-0.75-0.06-1.2813-0.18-1.5938-0.1188-0.3125-0.3625-0.46875-0.725-0.46875-0.36381 0-0.61631 0.15875-0.75881 0.47875-0.1412 0.31875-0.2125 0.845-0.2125 1.5775v5.265c0 0.89125 0.062 1.4988 0.1863 1.82 0.1237 0.32125 0.375 0.4825 0.75251 0.4825 0.3775 0 0.6275-0.16375 0.7525-0.49 0.1225-0.32625 0.185-0.93 0.185-1.8125v-5.2588zm-3.255 0.08c0-1.3313 0.24-2.245 0.72-2.7425 0.3762-0.39 0.925-0.585 1.6437-0.585 1.0463 0 1.7163 0.43 2.0113 1.2913 0.1712 0.51 0.2587 1.1888 0.2587 2.0363v5.165c0 1.22-0.1712 2.1088-0.5137 2.665-0.34 0.55751-0.9388 0.83626-1.7925 0.83626-0.85501 0-1.4563-0.28-1.805-0.83876-0.3488-0.56-0.5225-1.4475-0.5225-2.6625v-5.165z"/>
  <path style="fill:#6f6f6e" d="m323.14 68.293-5.2075 10.001"/>
  <path style="fill:#6f6f6e" d="m326.33 68.293-5.2075 10.001"/>
  <path style="fill:#6f6f6e" d="m329.52 68.293-5.2075 10.001"/>
  <path style="fill:#6f6f6e" d="m332.71 68.294-5.2075 10.001"/>
  <path style="fill:#6f6f6e" d="m335.9 68.293-5.2087 10.003"/>
  <path style="fill:#6f6f6e" d="m339.09 68.293-5.2075 10.001"/>
  <path style="fill:#6f6f6e" d="m342.28 68.293-5.2075 10.001"/>
  <path style="fill:#6f6f6e" d="m345.47 68.293-5.2075 10.001"/>
  <path style="fill:#6f6f6e" d="m348.66 68.293-5.2088 10.001"/>
  <path style="fill:#6f6f6e" d="m351.86 68.293-5.2075 10.001"/>
  <path style="fill:#6f6f6e" d="m355.05 68.294-5.2075 10.001"/>
  <path style="fill:#6f6f6e" d="m358.24 68.293-5.2075 10.001"/>
  <path style="fill:#6f6f6e" d="m361.43 68.293-5.2075 10.003"/>
  <path style="fill:#6f6f6e" d="m364.62 68.293-5.2075 10.003"/>
  <path style="fill:#6f6f6e" d="m367.81 68.294-5.2088 10.001"/>
  <path style="fill:#6f6f6e" d="m371 68.293-5.2075 10.003"/>
  <path style="fill:#6f6f6e" d="m374.19 68.293-5.2075 10.003"/>
  <path style="fill:#6f6f6e" d="m377.38 68.294-5.2075 10.001"/>
  <path style="fill:#6f6f6e" d="m380.57 68.294-5.2087 10.001"/>
  <path style="fill:#6f6f6e" d="m383.77 68.294-5.2087 10.001"/>
  <path style="fill:#6f6f6e" d="m386.96 68.293-5.2087 10.003"/>
  <path style="fill:#6f6f6e" d="m390.15 68.293-5.2088 10.001"/>
  <path style="fill:#6f6f6e" d="m393.34 68.294-5.21 10.001"/>
  <path style="fill:#6f6f6e" d="m396.53 68.293-5.2088 10.001"/>
  <path style="fill:#6f6f6e" d="m399.72 68.293-5.21 10.003"/>
  <path style="fill:#6f6f6e" d="m402.91 68.293-5.21 10.001"/>
  <path style="fill:#6f6f6e" d="m406.1 68.293-5.21 10.003"/>
  <path style="fill:#6f6f6e" d="m409.29 68.293-5.21 10.001"/>
  <path style="fill:#6f6f6e" d="m412.49 68.293-5.21 10.003"/>
  <path style="fill:#6f6f6e" d="m415.68 68.294-5.2088 10.001"/>
  <path style="fill:#6f6f6e" d="m418.87 68.293-5.21 10.001"/>
  <path style="fill:#6f6f6e" d="m422.06 68.294-5.21 10.001"/>
  <path style="fill:#6f6f6e" d="m425.25 68.293-5.2087 10.001"/>
  <path style="fill:#6f6f6e" d="m428.44 68.293-5.21 10.003"/>
  <path style="fill:#6f6f6e" d="m431.63 68.293-5.2087 10.001"/>
  <path style="fill:#6f6f6e" d="m434.82 68.293-5.2088 10.001"/>
  <path style="fill:#6f6f6e" d="m438.01 68.293-5.21 10.001"/>
  <path style="fill:#6f6f6e" d="m441.2 68.293-5.2088 10.001"/>
  <path style="fill:#6f6f6e" d="m444.4 68.293-5.21 10.001"/>
  <path style="fill:#6f6f6e" d="m447.59 68.293-5.2087 10.001"/>
  <path style="fill:#6f6f6e" d="m450.78 68.293-5.21 10.001"/>
  <path style="fill:#6f6f6e" d="m453.97 68.293-5.21 10.001"/>
  <path d="m341.04 228.18h-20.495v-4.0538h20.495v4.0538z" style="fill:#ececec"/>
  <path d="m418.36 234.93h-97.818v-4.0538h97.818v4.0538z" style="fill:#ececec"/>
  <path d="m418.36 240.04h-97.818v-4.0538h97.818v4.0538z" style="fill:#ececec"/>
  <path d="m448.84 215.67h-0.43871v-3.3563h0.43871v3.3563zm-1.1662 0h-0.4388v-3.3563h0.4388v3.3563zm0.365-5.4675c-2.0938 0-3.79 1.695-3.79 3.7888s1.6962 3.7925 3.79 3.7925c2.0925 0 3.79-1.6988 3.79-3.7925 0-2.0938-1.6975-3.7888-3.79-3.7888" style="fill:#f5f5f5"/>
  <path d="m392.23 216.31h-72.499v-5.2825h72.499v5.2825z" style="stroke:#ececec;stroke-miterlimit:10;stroke-width:0.245;fill:none"/>
  <path style="stroke:#ececec;stroke-miterlimit:10;stroke-width:.1675;fill:none" d="m322.36 210.91-2.7463 5.205"/>
  <path style="stroke:#ececec;stroke-miterlimit:10;stroke-width:.1675;fill:none" d="m324.05 210.91-2.7462 5.205"/>
  <path style="stroke:#ececec;stroke-miterlimit:10;stroke-width:.1675;fill:none" d="m325.73 210.91-2.7463 5.205"/>
  <path style="stroke:#ececec;stroke-miterlimit:10;stroke-width:.1675;fill:none" d="m327.41 210.91-2.7487 5.205"/>
  <path style="stroke:#ececec;stroke-miterlimit:10;stroke-width:.1675;fill:none" d="m329.1 210.91-2.7475 5.205"/>
  <path style="stroke:#ececec;stroke-miterlimit:10;stroke-width:.1675;fill:none" d="m330.78 210.91-2.7475 5.205"/>
  <path style="stroke:#ececec;stroke-miterlimit:10;stroke-width:.1675;fill:none" d="m332.46 210.91-2.7475 5.205"/>
  <path style="stroke:#ececec;stroke-miterlimit:10;stroke-width:.1675;fill:none" d="m334.15 210.91-2.7475 5.205"/>
  <path style="stroke:#ececec;stroke-miterlimit:10;stroke-width:.1675;fill:none" d="m335.83 210.91-2.7475 5.205"/>
  <path style="stroke:#ececec;stroke-miterlimit:10;stroke-width:.1675;fill:none" d="m337.51 210.91-2.7475 5.205"/>
  <path style="stroke:#ececec;stroke-miterlimit:10;stroke-width:.1675;fill:none" d="m339.2 210.91-2.7463 5.205"/>
  <path style="stroke:#ececec;stroke-miterlimit:10;stroke-width:.1675;fill:none" d="m340.88 210.91-2.7475 5.205"/>
  <path style="stroke:#ececec;stroke-miterlimit:10;stroke-width:.1675;fill:none" d="m342.56 210.91-2.7487 5.205"/>
  <path style="stroke:#ececec;stroke-miterlimit:10;stroke-width:.1675;fill:none" d="m344.25 210.91-2.7488 5.205"/>
  <path style="stroke:#ececec;stroke-miterlimit:10;stroke-width:.1675;fill:none" d="m345.93 210.91-2.7488 5.205"/>
  <path style="stroke:#ececec;stroke-miterlimit:10;stroke-width:.1675;fill:none" d="m347.61 210.91-2.7462 5.205"/>
  <path style="stroke:#ececec;stroke-miterlimit:10;stroke-width:.1675;fill:none" d="m349.3 210.91-2.7462 5.205"/>
  <path style="stroke:#ececec;stroke-miterlimit:10;stroke-width:.1675;fill:none" d="m350.98 210.91-2.7475 5.205"/>
  <path style="stroke:#ececec;stroke-miterlimit:10;stroke-width:.1675;fill:none" d="m352.67 210.91-2.7487 5.205"/>
  <path style="stroke:#ececec;stroke-miterlimit:10;stroke-width:.1675;fill:none" d="m354.35 210.91-2.7475 5.205"/>
  <path style="stroke:#ececec;stroke-miterlimit:10;stroke-width:.1675;fill:none" d="m356.03 210.91-2.7475 5.205"/>
  <path style="stroke:#ececec;stroke-miterlimit:10;stroke-width:.1675;fill:none" d="m357.71 210.91-2.7463 5.205"/>
  <path style="stroke:#ececec;stroke-miterlimit:10;stroke-width:.1675;fill:none" d="m359.4 210.91-2.7487 5.205"/>
  <path style="stroke:#ececec;stroke-miterlimit:10;stroke-width:.1675;fill:none" d="m361.08 210.91-2.7463 5.205"/>
  <path style="stroke:#ececec;stroke-miterlimit:10;stroke-width:.1675;fill:none" d="m362.77 210.91-2.7463 5.205"/>
  <path style="stroke:#ececec;stroke-miterlimit:10;stroke-width:.1675;fill:none" d="m364.45 210.91-2.7475 5.205"/>
  <path style="stroke:#ececec;stroke-miterlimit:10;stroke-width:.1675;fill:none" d="m366.13 210.91-2.745 5.205"/>
  <path style="stroke:#ececec;stroke-miterlimit:10;stroke-width:.1675;fill:none" d="m367.82 210.91-2.75 5.205"/>
  <path style="stroke:#ececec;stroke-miterlimit:10;stroke-width:.1675;fill:none" d="m369.5 210.91-2.7475 5.205"/>
  <path style="stroke:#ececec;stroke-miterlimit:10;stroke-width:.1675;fill:none" d="m371.18 210.91-2.7475 5.205"/>
  <path style="stroke:#ececec;stroke-miterlimit:10;stroke-width:.1675;fill:none" d="m372.87 210.91-2.7475 5.205"/>
  <path style="stroke:#ececec;stroke-miterlimit:10;stroke-width:.1675;fill:none" d="m374.55 210.91-2.7475 5.205"/>
  <path style="stroke:#ececec;stroke-miterlimit:10;stroke-width:.1675;fill:none" d="m376.23 210.91-2.7475 5.205"/>
  <path style="stroke:#ececec;stroke-miterlimit:10;stroke-width:.1675;fill:none" d="m377.92 210.91-2.7475 5.205"/>
  <path style="stroke:#ececec;stroke-miterlimit:10;stroke-width:.1675;fill:none" d="m379.6 210.91-2.7463 5.205"/>
  <path style="stroke:#ececec;stroke-miterlimit:10;stroke-width:.1675;fill:none" d="m381.28 210.91-2.7475 5.205"/>
  <path style="stroke:#ececec;stroke-miterlimit:10;stroke-width:.1675;fill:none" d="m382.97 210.91-2.7487 5.205"/>
  <path style="stroke:#ececec;stroke-miterlimit:10;stroke-width:.1675;fill:none" d="m384.65 210.91-2.7475 5.205"/>
  <path style="stroke:#ececec;stroke-miterlimit:10;stroke-width:.1675;fill:none" d="m386.34 210.91-2.7488 5.205"/>
  <path style="stroke:#ececec;stroke-miterlimit:10;stroke-width:.1675;fill:none" d="m388.02 210.91-2.7475 5.205"/>
  <path style="stroke:#ececec;stroke-miterlimit:10;stroke-width:.1675;fill:none" d="m389.7 210.91-2.7475 5.205"/>
  <path style="stroke:#ececec;stroke-miterlimit:10;stroke-width:.1675;fill:none" d="m391.39 210.91-2.7487 5.205"/>
  <path style="stroke:#ececec;stroke-miterlimit:10;stroke-width:0.245;fill:none" d="m319.89 213.79h28.448"/>
  <path style="stroke:#ececec;stroke-miterlimit:10;stroke-width:1.1812;fill:none" d="m349.06 213.79c0 0.70875-0.5725 1.2825-1.2813 1.2825-0.705 0-1.28-0.57375-1.28-1.2825 0-0.70375 0.57501-1.2788 1.28-1.2788 0.7088 0 1.2813 0.57501 1.2813 1.2788z"/>
  <path d="m408.97 216.34h-1.4263v-5.09h1.4263v5.09z" style="fill:#f5f5f5"/>
  <path d="m411.01 216.34h-1.4237v-5.09h1.4237v5.09z" style="fill:#f5f5f5"/>
  <path d="m413.04 216.34h-1.425v-5.09h1.425v5.09z" style="fill:#f5f5f5"/>
  <path d="m415.08 216.34h-1.425v-5.09h1.425v5.09z" style="fill:#f5f5f5"/>
  <path d="m417.11 216.34h-1.4262v-5.09h1.4262v5.09z" style="fill:#f5f5f5"/>
  <path d="m419.15 216.34h-1.4237v-5.09h1.4237v5.09z" style="fill:#f5f5f5"/>
  <path d="m421.18 216.34h-1.425v-5.09h1.425v5.09z" style="fill:#f5f5f5"/>
  <path d="m423.22 216.34h-1.425v-5.09h1.425v5.09z" style="fill:#f5f5f5"/>
  <path d="m425.26 216.34h-1.4237v-5.09h1.4237v5.09z" style="fill:#f5f5f5"/>
  <path d="m427.29 216.34h-1.425v-5.09h1.425v5.09z" style="fill:#f5f5f5"/>
  <path d="m429.33 216.34h-1.425v-5.09h1.425v5.09z" style="fill:#f5f5f5"/>
  <path d="m431.37 216.34h-1.4263v-5.09h1.4263v5.09z" style="fill:#f5f5f5"/>
  <path style="stroke:#ececec;stroke-miterlimit:10;stroke-width:1.5025;fill:none" d="m450.32 110.79c-0.3475-0.19251-0.75-0.30251-1.175-0.30251-0.75501 0-1.43 0.34126-1.8738 0.88126-0.4487-0.54-1.125-0.88126-1.88-0.88126-0.4237 0-0.825 0.11-1.1762 0.30251-0.7488 0.415-1.2588 1.2162-1.2588 2.135 0 0.2625 0.044 0.515 0.1213 0.75125 0.4175 1.8788 4.1937 4.2488 4.1937 4.2488s3.7713-2.37 4.1888-4.2488c0.078-0.23625 0.1212-0.49125 0.1212-0.75125 0-0.91875-0.51-1.72-1.2612-2.135z"/>
  <path style="fill:#f5f5f5" d="m400.2 217.31 4.1475-6.0788c0.1938-0.2825 0.12-0.66625-0.16-0.85875l-0.5112-0.345c-0.2813-0.19375-0.665-0.12125-0.8563 0.16l-3.4312 5.0275-1.5063-1.075c-0.2787-0.19625-0.6637-0.135-0.8612 0.14375l-0.3588 0.50125c-0.1975 0.27875-0.1337 0.66375 0.1425 0.86l2.5425 1.815c0.2775 0.1975 0.6588 0.13125 0.8525-0.15"/>
  <path style="fill:#ececec" d="m343.75 224.2h0.3963l-0.95131 3.8188h-0.3925l0.94751-3.8188z"/>
  <path style="fill:#ececec" d="m345.44 224.2h0.395l-0.95 3.8188h-0.3937l0.9487-3.8188z"/>
  <path d="m452.71 203.48h-132.55v-79.1h132.55v79.1z" style="fill:#f5f5f5"/>
  <path style="fill:#9c9b9b" d="m382.02 173.22v-14.08l10.093 7.0338-10.093 7.0463zm3.9338-23.419c-9.0438 0-16.38 7.3363-16.38 16.373 0 9.0513 7.3362 16.388 16.38 16.388 9.0487 0 16.379-7.3363 16.379-16.388 0-9.0363-7.33-16.373-16.379-16.373"/>
  <path style="fill:#9c9b9b" d="m382.02 159.14v14.08"/>
 </g>
 <g transform="translate(-590.53 -18.882)" class="prototype" id="id3">
  <path d="m788.66 299.71h-199.4v-278.79h199.4v278.79z" style="fill:#f5f5f5"/>
  <path d="m773.78 284.97h-169.14v-223.31h169.14v223.31z" style="fill:#fff"/>
  <path style="fill:#3c3c3b" d="m668.53 39.06h1.3775v11.715h-1.3775v-5.6775h-1.8775v5.6775h-1.3775v-11.715h1.3775v4.9125h1.8775v-4.9125z"/>
  <path style="fill:#3c3c3b" d="m674.94 42.163c0-0.75125-0.06-1.2825-0.1813-1.595-0.1187-0.3125-0.3612-0.46875-0.7237-0.46875-0.365 0-0.6175 0.16-0.7588 0.47875-0.1425 0.31875-0.2125 0.845-0.2125 1.5775v5.265c0 0.89125 0.062 1.4975 0.185 1.82 0.125 0.32125 0.375 0.4825 0.7525 0.4825s0.6288-0.16375 0.7525-0.49c0.1238-0.325 0.1863-0.92875 0.1863-1.8125v-5.2575zm-3.255 0.0788c0-1.33 0.24-2.2438 0.72001-2.7425 0.3762-0.39 0.925-0.585 1.6437-0.585 1.0463 0 1.7163 0.43 2.01 1.2925 0.1725 0.50875 0.2588 1.1888 0.2588 2.035v5.165c0 1.2213-0.17 2.1088-0.5125 2.6663-0.3413 0.55625-0.94001 0.835-1.7938 0.835-0.8537 0-1.455-0.28125-1.8037-0.83875-0.34881-0.55875-0.52251-1.4463-0.52251-2.6625v-5.165z"/>
  <path style="fill:#3c3c3b" d="m683.09 39.06h1.7238v11.715h-1.2251v-4.7l0.1138-4.3788-1.59 9.0575h-1.245l-1.6575-9.0575 0.1125 4.3788v4.7h-1.2175v-11.715h1.7163l1.6787 9.6313 1.59-9.6313z"/>
  <path style="fill:#3c3c3b" d="m686.73 39.06h3.5012v1.1463h-2.1225v4.005h2.01v1.145h-2.01v4.2738h2.1488v1.145h-3.5275v-11.715z"/>
  <path style="fill:#3c3c3b" d="m695.05 42.37c0-0.80375-0.064-1.375-0.1888-1.7113-0.1275-0.3375-0.3762-0.505-0.7487-0.505h-0.87251v4.8775h0.83871c0.39 0 0.6488-0.17125 0.7788-0.51125 0.1275-0.34375 0.1925-0.98375 0.1925-1.925v-0.225zm-3.1888-3.3088h2.3575c1.0375 0 1.69 0.43 1.955 1.2913 0.1688 0.54125 0.255 1.1725 0.255 1.8963 0 0.7225-0.021 1.2675-0.06 1.6313-0.091 0.8-0.3012 1.3813-0.6337 1.7463-0.3325 0.36625-0.8375 0.55-1.5163 0.55h-0.97871v4.6h-1.3788v-11.715z"/>
  <path style="fill:#3c3c3b" d="m698.81 47.421h1.7975l-0.92501-6.19h-0.019l-0.8537 6.19zm0.01-8.36h1.6575l1.9375 11.715h-1.2988l-0.3325-2.2363h-2.1237l-0.3063 2.2363h-1.3112l1.7775-11.715z"/>
  <path style="fill:#3c3c3b" d="m703.54 42.376c0-1.7225 0.4075-2.7913 1.2238-3.2075 0.3199-0.16 0.6724-0.2425 1.0524-0.2475 0.71501 0 1.2325 0.1525 1.5525 0.45625 0.3175 0.30375 0.5238 0.705 0.6175 1.205 0.094 0.5 0.14 1.105 0.14 1.82v0.905h-1.3312v-1.525c0-0.5975-0.06-1.0263-0.1825-1.2838-0.1238-0.2575-0.36131-0.38625-0.72001-0.38625-0.3563 0-0.6087 0.16125-0.755 0.48625-0.1463 0.32375-0.2187 0.89625-0.2187 1.7175v4.925c0 0.9375 0.062 1.5875 0.1924 1.9538 0.1275 0.365 0.3825 0.55 0.7625 0.55 0.3788 0 0.63881-0.19 0.77751-0.5675 0.1413-0.37625 0.21-1.03 0.21-1.9625v-1.525h-0.95121v-1.0638h2.2162v6.15h-0.7262l-0.1863-0.905c-0.2612 0.6775-0.7612 1.0188-1.5 1.0188-0.74 0-1.2862-0.28875-1.6412-0.8625-0.3538-0.57625-0.5325-1.4875-0.5325-2.74v-4.9113z"/>
  <path style="fill:#3c3c3b" d="m709.94 39.06h3.5012v1.1463h-2.1225v4.005h2.0088v1.145h-2.0088v4.2738h2.1488v1.145h-3.5275v-11.715z"/>
  <path style="fill:#f5f5f5" d="m754.37 85.808-4.03-1.38 4.03-1.3788v2.7588z"/>
  <path style="fill:#f5f5f5" d="m632.53 88.305-4.6575 8.9438"/>
  <path style="fill:#f5f5f5" d="m635.38 88.305-4.6575 8.9438"/>
  <path style="fill:#f5f5f5" d="m638.24 88.305-4.6575 8.9438"/>
  <path style="fill:#f5f5f5" d="m641.09 88.305-4.6575 8.9438"/>
  <path style="fill:#f5f5f5" d="m643.94 88.305-4.6575 8.9438"/>
  <path style="fill:#f5f5f5" d="m646.8 88.305-4.6575 8.9438"/>
  <path style="fill:#f5f5f5" d="m649.65 88.305-4.6575 8.9438"/>
  <path style="fill:#f5f5f5" d="m652.51 88.305-4.6575 8.9438"/>
  <path style="fill:#f5f5f5" d="m655.36 88.305-4.6575 8.9438"/>
  <path style="fill:#f5f5f5" d="m658.21 88.305-4.6575 8.9438"/>
  <path style="fill:#f5f5f5" d="m661.07 88.306-4.6575 8.9425"/>
  <path style="fill:#f5f5f5" d="m663.92 88.305-4.6588 8.9438"/>
  <path style="fill:#f5f5f5" d="m666.77 88.305-4.6575 8.9438"/>
  <path style="fill:#f5f5f5" d="m669.63 88.305-4.6588 8.9438"/>
  <path style="fill:#f5f5f5" d="m672.48 88.305-4.6588 8.9438"/>
  <path style="fill:#f5f5f5" d="m675.34 88.305-4.6575 8.9438"/>
  <path style="fill:#f5f5f5" d="m678.19 88.305-4.6588 8.9438"/>
  <path style="fill:#f5f5f5" d="m681.04 88.305-4.6575 8.9438"/>
  <path style="fill:#f5f5f5" d="m683.9 88.305-4.6575 8.9438"/>
  <path style="fill:#f5f5f5" d="m686.75 88.305-4.6575 8.9438"/>
  <path style="fill:#f5f5f5" d="m689.61 88.305-4.6575 8.9438"/>
  <path style="fill:#f5f5f5" d="m692.46 88.305-4.6575 8.9438"/>
  <path style="fill:#f5f5f5" d="m695.31 88.305-4.6575 8.9438"/>
  <path style="fill:#f5f5f5" d="m698.17 88.305-4.6575 8.9438"/>
  <path style="fill:#f5f5f5" d="m701.02 88.305-4.6588 8.9438"/>
  <path style="fill:#f5f5f5" d="m703.88 88.305-4.6588 8.9438"/>
  <path style="fill:#f5f5f5" d="m706.73 88.305-4.6588 8.9438"/>
  <path style="fill:#f5f5f5" d="m709.58 88.305-4.6588 8.9438"/>
  <path style="fill:#f5f5f5" d="m712.44 88.305-4.6588 8.9438"/>
  <path style="fill:#f5f5f5" d="m715.29 88.305-4.6588 8.9438"/>
  <path style="fill:#f5f5f5" d="m718.14 88.305-4.6575 8.9438"/>
  <path style="fill:#f5f5f5" d="m721 88.305-4.6575 8.9438"/>
  <path style="fill:#f5f5f5" d="m723.85 88.305-4.6588 8.9438"/>
  <path style="fill:#f5f5f5" d="m726.71 88.305-4.6588 8.9438"/>
  <path style="fill:#f5f5f5" d="m729.56 88.305-4.6588 8.9438"/>
  <path style="fill:#f5f5f5" d="m732.41 88.305-4.6575 8.9438"/>
  <path style="fill:#f5f5f5" d="m735.27 88.305-4.66 8.9438"/>
  <path style="fill:#f5f5f5" d="m738.12 88.305-4.6575 8.9438"/>
  <path style="fill:#f5f5f5" d="m740.98 88.305-4.6588 8.9438"/>
  <path style="fill:#f5f5f5" d="m743.83 88.305-4.6588 8.9438"/>
  <path style="fill:#f5f5f5" d="m746.68 88.305-4.6588 8.9438"/>
  <path style="fill:#f5f5f5" d="m749.54 88.305-4.6588 8.9438"/>
  <path style="fill:#f5f5f5" d="m744.88 174.03 4.6562 8.9438"/>
  <path style="fill:#f5f5f5" d="m742.03 174.02 4.6562 8.945"/>
  <path style="fill:#f5f5f5" d="m739.17 174.03 4.6562 8.9438"/>
  <path style="fill:#f5f5f5" d="m736.32 174.03 4.6562 8.9438"/>
  <path style="fill:#f5f5f5" d="m733.47 174.03 4.6562 8.9438"/>
  <path style="fill:#f5f5f5" d="m730.61 174.03 4.6575 8.9438"/>
  <path style="fill:#f5f5f5" d="m727.76 174.03 4.6562 8.9438"/>
  <path style="fill:#f5f5f5" d="m724.9 174.03 4.6562 8.9438"/>
  <path style="fill:#f5f5f5" d="m722.05 174.03 4.6562 8.9438"/>
  <path style="fill:#f5f5f5" d="m719.2 174.03 4.6575 8.9438"/>
  <path style="fill:#f5f5f5" d="m716.34 174.03 4.6575 8.9438"/>
  <path style="fill:#f5f5f5" d="m713.49 174.03 4.6575 8.9438"/>
  <path style="fill:#f5f5f5" d="m710.63 174.03 4.6587 8.9438"/>
  <path style="fill:#f5f5f5" d="m707.78 174.03 4.6575 8.9438"/>
  <path style="fill:#f5f5f5" d="m704.93 174.03 4.6562 8.9438"/>
  <path style="fill:#f5f5f5" d="m702.07 174.03 4.6562 8.9438"/>
  <path style="fill:#f5f5f5" d="m699.22 174.03 4.6575 8.9438"/>
  <path style="fill:#f5f5f5" d="m696.37 174.03 4.6575 8.9438"/>
  <path style="fill:#f5f5f5" d="m693.51 174.03 4.6575 8.9438"/>
  <path style="fill:#f5f5f5" d="m690.66 174.03 4.6575 8.9438"/>
  <path style="fill:#f5f5f5" d="m687.8 174.03 4.6575 8.9438"/>
  <path style="fill:#f5f5f5" d="m684.95 174.03 4.6588 8.9438"/>
  <path style="fill:#f5f5f5" d="m682.1 174.03 4.6587 8.9438"/>
  <path style="fill:#f5f5f5" d="m679.24 174.03 4.6587 8.9438"/>
  <path style="fill:#f5f5f5" d="m676.39 174.03 4.6587 8.9438"/>
  <path style="fill:#f5f5f5" d="m673.53 174.03 4.6587 8.9438"/>
  <path style="fill:#f5f5f5" d="m670.68 174.03 4.6588 8.9438"/>
  <path style="fill:#f5f5f5" d="m667.83 174.03 4.6587 8.9438"/>
  <path style="fill:#f5f5f5" d="m664.97 174.03 4.6587 8.9438"/>
  <path style="fill:#f5f5f5" d="m662.12 174.03 4.6588 8.9438"/>
  <path style="fill:#f5f5f5" d="m659.26 174.03 4.6588 8.9438"/>
  <path style="fill:#f5f5f5" d="m656.41 174.03 4.6587 8.9438"/>
  <path style="fill:#f5f5f5" d="m653.56 174.03 4.66 8.9438"/>
  <path style="fill:#f5f5f5" d="m650.7 174.03 4.66 8.9438"/>
  <path style="fill:#f5f5f5" d="m647.85 174.03 4.66 8.9438"/>
  <path style="fill:#f5f5f5" d="m645 174.03 4.6587 8.9438"/>
  <path style="fill:#f5f5f5" d="m642.14 174.03 4.6587 8.9438"/>
  <path style="fill:#f5f5f5" d="m639.29 174.03 4.66 8.9438"/>
  <path style="fill:#f5f5f5" d="m636.43 174.03 4.6588 8.9438"/>
  <path style="fill:#f5f5f5" d="m633.58 174.03 4.6588 8.9438"/>
  <path style="fill:#f5f5f5" d="m630.73 174.03 4.66 8.9438"/>
  <path style="fill:#f5f5f5" d="m627.87 174.03 4.66 8.9438"/>
  <rect style="fill:#6c6d6b" height="201.59" width="147.83" y="72.122" x="613.78"/>
  <path d="m664.02 252.21h-23.01v-5.735h23.01v5.735z" style="fill:#f5f5f5"/>
  <path d="m699.39 252.21h-23.013v-5.735h23.013v5.735z" style="fill:#f5f5f5"/>
  <path d="m735.08 252.21h-23.009v-5.735h23.009v5.735z" style="fill:#f5f5f5"/>
  <path style="fill:#f5f5f5" d="m675.61 224.8c0-7.2138 5.8487-13.063 13.063-13.063 7.2162 0 13.064 5.8488 13.064 13.063 0 7.2175-5.8475 13.066-13.064 13.066-7.2138 0-13.063-5.8488-13.063-13.066"/>
  <path style="fill:#f5f5f5" d="m710.98 224.8c0-7.2138 5.8487-13.063 13.065-13.063 7.2162 0 13.064 5.8488 13.064 13.063 0 7.2175-5.8475 13.066-13.064 13.066-7.2163 0-13.065-5.8488-13.065-13.066"/>
  <path style="fill:#f5f5f5" d="m640.56 224.8c0-7.2138 5.8525-13.063 13.064-13.063 7.2174 0 13.066 5.8488 13.066 13.063 0 7.2175-5.8488 13.066-13.066 13.066-7.2113 0-13.064-5.8488-13.064-13.066"/>
  <path style="fill:#f5f5f5" d="m686.03 167.44c0-1.5862 1.285-2.8675 2.87-2.8675 1.5837 0 2.8675 1.2813 2.8675 2.8675 0 1.5825-1.2838 2.8688-2.8675 2.8688-1.585 0-2.87-1.2862-2.87-2.8688"/>
  <path style="fill:#f5f5f5" d="m694.41 167.44c0-1.5862 1.2837-2.8675 2.8675-2.8675 1.5862 0 2.8675 1.2813 2.8675 2.8675 0 1.5825-1.2813 2.8688-2.8675 2.8688-1.5838 0-2.8675-1.2862-2.8675-2.8688"/>
  <path style="fill:#f5f5f5" d="m677.26 167.44c0-1.5862 1.2837-2.8675 2.8675-2.8675 1.585 0 2.8675 1.2813 2.8675 2.8675 0 1.5825-1.2825 2.8688-2.8675 2.8688-1.5838 0-2.8675-1.2862-2.8675-2.8688"/>
  <path d="m754.72 183.69h-132.67v-5.735h132.67v5.735z" style="stroke:#ececec;stroke-miterlimit:10;stroke-width:.32625;fill:#f5f5f5"/>
  <path d="m754.72 97.018h-132.67v-5.735h132.67v5.735z" style="stroke:#ececec;stroke-miterlimit:10;stroke-width:.32625;fill:#f5f5f5"/>
  <path style="stroke:#ececec;stroke-miterlimit:10;stroke-width:.65125;fill:#f5f5f5" d="m622.43 101.16h131.61"/>
 </g>
 <g transform="translate(-809.33 -35.842)" class="prototype" id="id4">
  <path d="m1008.7 316.76h-199.4v-280.92h199.4v280.92z" style="fill:#f5f5f5"/>
  <path d="m993.86 299.9h-169.14v-223.31h169.14v223.31z" style="fill:#fff"/>
  <path style="fill:#3c3c3b" d="m904.83 53.985h1.7238v11.714h-1.225v-4.6988l0.11375-4.38-1.59 9.0588h-1.245l-1.6575-9.0588 0.1125 4.38v4.6988h-1.2175v-11.714h1.7175l1.6788 9.6313 1.5888-9.6313z"/>
  <path style="fill:#3c3c3b" d="m909.72 62.345h1.7975l-0.925-6.1913h-0.0188l-0.85376 6.1913zm0.008-8.36h1.6563l1.9388 11.714h-1.2988l-0.3325-2.2363h-2.1238l-0.30625 2.2363h-1.3112l1.7775-11.714z"/>
  <path style="fill:#3c3c3b" d="m917.91 57.292c0-0.8025-0.0625-1.3738-0.18875-1.7113-0.1275-0.33625-0.37625-0.505-0.74875-0.505h-0.8725v4.8788h0.83875c0.39 0 0.64875-0.17 0.77875-0.5125 0.12875-0.34125 0.1925-0.9825 0.1925-1.9238v-0.22625zm-3.1875-3.3075h2.3563c1.0388 0 1.69 0.43 1.9562 1.2913 0.16876 0.54125 0.25376 1.1738 0.25376 1.8963 0 0.72375-0.0213 1.2663-0.06 1.6313-0.09 0.79875-0.30001 1.3813-0.63251 1.7463-0.33375 0.36625-0.83875 0.55-1.5175 0.55h-0.97875v4.5988h-1.3775v-11.714z"/>
  <path style="stroke:#575756;stroke-miterlimit:10;stroke-width:.2325;fill:#c6c6c5" d="m868.49 93.317-3.7838 7.2638"/>
  <path style="stroke:#575756;stroke-miterlimit:10;stroke-width:.2325;fill:#c6c6c5" d="m870.81 93.317-3.785 7.2638"/>
  <path style="stroke:#575756;stroke-miterlimit:10;stroke-width:.2325;fill:#c6c6c5" d="m873.13 93.317-3.7838 7.2638"/>
  <path style="stroke:#575756;stroke-miterlimit:10;stroke-width:.2325;fill:#c6c6c5" d="m875.44 93.317-3.78 7.263"/>
  <path style="stroke:#575756;stroke-miterlimit:10;stroke-width:.2325;fill:#c6c6c5" d="m877.76 93.317-3.785 7.2638"/>
  <path style="stroke:#575756;stroke-miterlimit:10;stroke-width:.2325;fill:#c6c6c5" d="m880.08 93.317-3.7838 7.2638"/>
  <path style="stroke:#575756;stroke-miterlimit:10;stroke-width:.2325;fill:#c6c6c5" d="m882.4 93.317-3.7838 7.2638"/>
  <path style="stroke:#575756;stroke-miterlimit:10;stroke-width:.2325;fill:#c6c6c5" d="m884.71 93.317-3.7825 7.2638"/>
  <path style="stroke:#575756;stroke-miterlimit:10;stroke-width:.2325;fill:#c6c6c5" d="m887.03 93.317-3.7825 7.2638"/>
  <path style="stroke:#575756;stroke-miterlimit:10;stroke-width:.2325;fill:#c6c6c5" d="m889.35 93.317-3.78 7.263"/>
  <path style="stroke:#575756;stroke-miterlimit:10;stroke-width:.2325;fill:#c6c6c5" d="m891.67 93.318-3.7825 7.2625"/>
  <path style="stroke:#575756;stroke-miterlimit:10;stroke-width:.2325;fill:#c6c6c5" d="m893.99 93.317-3.7838 7.2638"/>
  <path style="stroke:#575756;stroke-miterlimit:10;stroke-width:.2325;fill:#c6c6c5" d="m896.3 93.317-3.78 7.263"/>
  <path style="stroke:#575756;stroke-miterlimit:10;stroke-width:.2325;fill:#c6c6c5" d="m898.62 93.317-3.7825 7.2638"/>
  <path style="stroke:#575756;stroke-miterlimit:10;stroke-width:.2325;fill:#c6c6c5" d="m900.94 93.318-3.7838 7.2625"/>
  <path style="stroke:#575756;stroke-miterlimit:10;stroke-width:.2325;fill:#c6c6c5" d="m903.26 93.317-3.7838 7.2638"/>
  <path style="stroke:#575756;stroke-miterlimit:10;stroke-width:.2325;fill:#c6c6c5" d="m905.57 93.317-3.7825 7.2638"/>
  <path style="stroke:#575756;stroke-miterlimit:10;stroke-width:.2325;fill:#c6c6c5" d="m907.89 93.317-3.7825 7.2638"/>
  <path style="stroke:#575756;stroke-miterlimit:10;stroke-width:.2325;fill:#c6c6c5" d="m910.21 93.318-3.7825 7.2625"/>
  <path style="stroke:#575756;stroke-miterlimit:10;stroke-width:.2325;fill:#c6c6c5" d="m912.53 93.317-3.7825 7.2638"/>
  <path style="stroke:#575756;stroke-miterlimit:10;stroke-width:.2325;fill:#c6c6c5" d="m914.84 93.317-3.7813 7.2638"/>
  <path style="stroke:#575756;stroke-miterlimit:10;stroke-width:.2325;fill:#c6c6c5" d="m917.16 93.317-3.7838 7.2638"/>
  <path style="stroke:#575756;stroke-miterlimit:10;stroke-width:.2325;fill:#c6c6c5" d="m919.48 93.317-3.7838 7.2638"/>
  <path style="stroke:#575756;stroke-miterlimit:10;stroke-width:.2325;fill:#c6c6c5" d="m921.8 93.317-3.79 7.263"/>
  <path style="stroke:#575756;stroke-miterlimit:10;stroke-width:.2325;fill:#c6c6c5" d="m924.11 93.317-3.7825 7.2638"/>
  <path style="stroke:#575756;stroke-miterlimit:10;stroke-width:.2325;fill:#c6c6c5" d="m926.43 93.317-3.7825 7.2638"/>
  <path style="stroke:#575756;stroke-miterlimit:10;stroke-width:.2325;fill:#c6c6c5" d="m928.75 93.317-3.7813 7.2638"/>
  <path style="stroke:#575756;stroke-miterlimit:10;stroke-width:.2325;fill:#c6c6c5" d="m931.07 93.317-3.7825 7.2638"/>
  <path style="stroke:#575756;stroke-miterlimit:10;stroke-width:.2325;fill:#c6c6c5" d="m933.39 93.317-3.7825 7.2638"/>
  <path style="stroke:#575756;stroke-miterlimit:10;stroke-width:.2325;fill:#c6c6c5" d="m935.7 93.317-3.78 7.263"/>
  <path style="stroke:#575756;stroke-miterlimit:10;stroke-width:.2325;fill:#c6c6c5" d="m938.02 93.317-3.7813 7.2638"/>
  <path style="stroke:#575756;stroke-miterlimit:10;stroke-width:.2325;fill:#c6c6c5" d="m940.34 93.317-3.7825 7.2638"/>
  <path style="stroke:#575756;stroke-miterlimit:10;stroke-width:.2325;fill:#c6c6c5" d="m942.66 93.317-3.7825 7.2638"/>
  <path style="stroke:#575756;stroke-miterlimit:10;stroke-width:.2325;fill:#c6c6c5" d="m944.97 93.317-3.7813 7.2638"/>
  <path style="stroke:#575756;stroke-miterlimit:10;stroke-width:.2325;fill:#c6c6c5" d="m947.29 93.317-3.7813 7.2638"/>
  <path style="stroke:#575756;stroke-miterlimit:10;stroke-width:.2325;fill:#c6c6c5" d="m949.61 93.317-3.7825 7.2638"/>
  <path style="stroke:#575756;stroke-miterlimit:10;stroke-width:.2325;fill:#c6c6c5" d="m951.93 93.317-3.7813 7.2638"/>
  <path style="stroke:#575756;stroke-miterlimit:10;stroke-width:.2325;fill:#c6c6c5" d="m954.24 93.317-3.7825 7.2638"/>
  <path style="stroke:#575756;stroke-miterlimit:10;stroke-width:.2325;fill:#c6c6c5" d="m956.56 93.317-3.7825 7.2638"/>
  <path style="stroke:#575756;stroke-miterlimit:10;stroke-width:.2325;fill:#c6c6c5" d="m958.88 93.317-3.7813 7.2638"/>
  <path style="stroke:#575756;stroke-miterlimit:10;stroke-width:.2325;fill:#c6c6c5" d="m961.2 93.317-3.7813 7.2638"/>
  <path style="stroke:#575756;stroke-miterlimit:10;stroke-width:.2325;fill:#c6c6c5" d="m963.51 93.317-3.7813 7.2638"/>
  <path style="stroke:#575756;stroke-miterlimit:10;stroke-width:.55875;fill:#c6c6c5" d="m853.66 109.73h111.67"/>
  <path style="fill:#1d1d1b" d="m979.47 261.18c0-3.1575 4.5738-3.1575 4.5738 0 0 3.1563-2.2862 5.7188-2.2862 5.7188s-2.2875-2.5625-2.2875-5.7188"/>
  <path style="fill:#b1b1b1" d="m844.48 237.85 0.315-0.275-10.994-12.518-0.45125 2.865 9.6813 10.859-9.38 7.8425 1.3588 2.1112 10.694-9.47-1.2238-1.415z"/>
  <path style="fill:#b1b1b1" d="m985.32 209.46-1.0675 1.1825-18.769-17.085 1.0663-1.1838 18.77 17.086z"/>
  <path style="fill:#b1b1b1" d="m978.37 200.37 7.3863-7.6113 0.18375-2.3463-8.8088 8.8338-11.668-10.623-1.0675 1.1825 20.354 18.494 0.49-1.8988-6.87-6.0313z"/>
  <path style="fill:#b1b1b1" d="m896.98 235.74 0.54625 0.47125 7.0375-8.2738-0.54375-0.46875-7.04 8.2713z"/>
  <path style="fill:#b1b1b1" d="m911.04 235.36 0.505-0.51375-7.6813-7.6375-0.50501 0.51126 7.6813 7.64z"/>
  <path style="fill:#b1b1b1" d="m940.04 162.14c-0.46-0.19125-0.745-0.5775-0.625-0.8625l3.165-7.6963c0.115-0.285 0.5875-0.3575 1.0512-0.165l0.27625 0.11625c0.46626 0.19125 0.74501 0.58 0.62876 0.86125l-3.165 7.6988c-0.1175 0.28375-0.58626 0.35875-1.0488 0.165l-0.2825-0.1175z"/>
  <path style="fill:#b1b1b1" d="m943.18 154.84c-0.49875-0.01-0.9025-0.23375-0.8925-0.50126l0.17875-7.1225c0.005-0.26 0.41875-0.465 0.91875-0.44875l0.30375 0.005c0.50126 0.0125 0.90001 0.23625 0.89251 0.49875l-0.17875 7.1238c-0.006 0.26376-0.41501 0.46626-0.91751 0.45251l-0.305-0.007z"/>
  <path style="fill:#b1b1b1" d="m889.86 219.22-0.38875 0.6075 14.131 9.1388 0.38625-0.60875-14.129-9.1375z"/>
  <path style="fill:#b1b1b1" d="m974.74 227.99-22.449-20.435-1.065 1.1838 5.0013 4.5538-9.2463 9.29-5.3763-4.8913 18.054-18.146 22.765 20.719-7.6838 7.7263zm-6.6513 6.6838-5.6138-5.1075 5.5275-5.5563 5.6138 5.1113-5.5275 5.5525zm-16.153-14.704 5.5238-5.5525 9.3063 8.4688-5.525 5.5525-9.305-8.4688zm13.361 17.511-35.863-10.691 31.761-31.931c0.2 0.0625 0.4025 0.1175 0.6125 0.1575l-22.949 23.073 1.1738 1.1862 0.4475-0.45 5.3738 4.89-0.0762 0.0775 1.1762 1.1825 3.8525-3.8763 16.154 14.708-1.6638 1.675zm-64.344 10.516-0.44-0.34875 49.61-49.87 0.68376 0.10375-49.854 50.115zm-55.088-43.468 4.5063-8.9688 13.35 3.41-2.0725 10.231 1.435 0.29375-0.0875 0.2875 11.683 3.5175-2.1938 8.3913-0.21625-0.0138-0.045 0.72125 0.0775 0.004-0.007 0.0213 0.6925 0.18625 0.045-0.16125 10.658 0.64 13.839 13.753 0.5075-0.51126-13.821-13.743 0.01-0.195-11.006-0.65875 2.1513-8.2288 43.171 13.013-19.704 19.806-52.971-41.795zm9.5875-19.081 10.789 1.0688-2.0988 10.369-12.794-3.2688 4.1038-8.1688zm3.9713-7.9025 35.829 3.5563-0.6725 6.0813-0.74-0.11125-0.008 0.045-37.355-3.7075 2.9463-5.8638zm-8.5475-9.8925 0.125-20.61h-0.05l1.9425-1.73 6.6613 0.54625-0.50876 8.3775-0.007 0.0838h0.002l-0.84375 13.936-7.3213-0.60375zm-12.364-9.52 10.359-9.2375-0.0575 10.083-10.301-0.845zm22.439-0.34 8.8863 1.7075-1.85 16.755-8.1088-0.80625 1.0725-17.656zm0.19875-3.2625 9.135 0.9075-0.21125 1.9388-8.9938-1.7275 0.07-1.1188zm0.5125-8.4988 39.901 3.28-0.77375 7.0188-39.513-3.9263 0.385-6.3725zm21.458-17.178 29.433 11.608-2.3162 7.4275-6.78-0.56 0.0962-0.8625-1.6525-0.18625-0.10375 0.91375-20.514-1.6862 1.8375-16.654zm50.424 19.884-2.5813 8.2688-7.4613-3.2938-0.39-0.35875-0.12625 0.1325-11.209-4.9475 2.33-7.4663 19.438 7.665zm-11.669 47.606 2.4713-2.4838 23.174 3.5225-11.646 11.705-13.999-12.744zm-3.7725-3.4325 4.1975 0.6375-1.6588 1.67-2.5388-2.3075zm-5.6338 5.3025 4.3213-4.3463 17.96 16.353-4.3213 4.3425-17.96-16.349zm-5.7875 5.8175 4.66-4.6875 17.963 16.349-4.6638 4.6863-17.959-16.348zm8.6713 10.045 8.1625 7.4338-3.2763 3.2975-11.97-3.6063 7.0838-7.125zm-11.099 0.32125 0.0425 0.0425 1.1775-1.1812-3.99-4.0075 4.0713-4.0888 8.5613 7.7925-7.6563 7.7-6.485-1.955 4.2788-4.3025zm-3.9463-3.9638 2.7688 2.7838-4.9138 4.94-4.2575-1.2863 6.4025-6.4375zm-4.87-4.5625 5.575 0.85-9.41 9.4575-3.9963-1.205 7.8313-9.1025zm-22.275-4.485-2.4475 8.5-7.0763-2.1325 1.6988-8.3663 7.825 1.9988zm1.6288-11.04-2.485 8.6238-6.55-1.6725 1.7788-8.77 7.2563 1.8188zm17.506 2.7463-24.445-6.1313 0.0575-0.2775 24.823 2.4638-0.435 3.945zm-12.15 7.885-6.225-1.5925 2.4825-8.6325 6.2325 1.5662-2.49 8.6588zm14.645-5.6125 9.1913 8.3688-1.115 1.1188-6.9588-1.0575-0.50625-0.43875-0.2725 0.3175-10.955-1.6625 0.003-0.002-2.4163-0.62126 2.4913-8.6663 7.8638 1.9725-0.10875 1.0163 1.655 0.1825 0.085-0.78876 1.0438 0.26125zm20.398-2.8988-10.081 10.135-9.3425-8.5013 0.0338-0.1275-0.23875-0.0588-0.0338-0.0337-0.0163 0.02-1.585-0.3975 0.465-4.1913 0.1125 0.0125 20.686 3.1425zm-18.28-11.2 15.69 1.5588-3.4213 3.44 1.4988 1.5038 2.4525-2.465-0.51126 4.6225-16.39-2.495 0.68126-6.165zm12.918-21.901-1.8563 13.495-4.1913-0.805c-0.14-0.125-0.40501-0.24-0.71751-0.30125l-0.29875-0.06c-0.4975-0.0913-0.92125-0.0175-0.9575 0.17125l-0.97125 5.12c-0.0263 0.1275 0.1375 0.275 0.39875 0.38375 0.0975 0.12 0.22875 0.205 0.37875 0.235l9.3313 1.7912-1.0212 1.0263-10.011-0.99501 2.3013-20.816 7.615 0.755zm6.095 15.023-7.5063-1.4413 1.8638-13.536 1.0938 0.10875 0.08-0.80625 6.59 1.9488-5.5825 4.735 0.23375 0.28125-0.0662 0.0738 6.2113 5.7038-2.9175 2.9325zm-12.695 1.3562 0.2975-1.57 10.591 2.035-1.3638 1.3675-9.525-1.8325zm14.301 0.04 1.0375 1.0438-4.03 4.0513-1.8863-0.1875 4.8788-4.9075zm10.751-17.636 2.0463 0.9025-0.23875 0.77-1.8075-1.6725zm-5.955-2.63 6.4375 5.9688-9.6 9.6463-6.125-5.6263 5.7888-4.915-0.29125-0.35-0.145 0.12375 0.02-0.0725-6.8563-2.025-0.0825 0.2975 0.1125-1.165-9.14-0.90875 0.78125-7.0425 6.7675 0.55375-0.025 0.0613 12.358 5.4538zm-27.498 2.3575 5.7275 0.5675-2.3013 20.82-5.725-0.57 2.2988-20.818zm-24.415 11.593 0.855-7.7338c0.1575 0.27 0.45376 0.47 0.81126 0.5025l13.594 1.2725-0.6775 7.3125-14.42-1.3538c-0.0575-0.005-0.11-0.003-0.1625 0m14.525 3.4875c0.1425 0.21625 0.4075 0.3775 0.7325 0.4075l0.3 0.0288c0.5 0.0462 0.93125-0.24125 0.97125-0.63875l0.85126-9.1725c0.3175-0.12875 0.55-0.3975 0.5775-0.73375l0.03-0.30375c0.0325-0.35125-0.165-0.67125-0.47375-0.855-0.0812-0.30875-0.405-0.55875-0.81501-0.59875l-0.3-0.0263c-0.36-0.0362-0.685 0.10625-0.85125 0.3375l-13.684-1.2863c-0.345-0.0312-0.66251 0.0937-0.86626 0.31125l0.53126-4.825 21.23 2.11-2.2962 20.819-21.234-2.11 0.54-4.8638c0.0638 0.015 0.12875 0.0275 0.19375 0.0337l14.563 1.3662zm1.6638 41.716-14.29-4.3075 2.465-8.565 4.7813 1.2213-0.0525 0.19125 1.5988 0.4625 0.0688-0.24125 1.475 0.37875-0.0187 0.115 10.863 1.6525-7.4263 8.6275 0.53625 0.46501zm33.046-23.679 10.81-10.866-1.4962-1.5063-0.008 0.009-1.87-1.8775 8.1025-8.1475-1.4988-1.505-9.6813 9.735 1.4975 1.5062 0.0837-0.0837 1.8712 1.8775-10.409 10.465-2.7838-0.425 0.745-6.765 6.4813-6.5138-0.37-0.37251 0.0675-0.0675-2.16-2.1775 11.286-11.346 19.136 17.743-0.2225 0.2925c-0.30125 0.40375-0.25125 0.9525 0.11 1.2238l7.6238 5.795c-0.05 0.325-0.075 0.65375-0.075 0.99125 0 0.82501 0.1625 1.615 0.455 2.3338l-5.1213 5.1463 0.0725-0.5-32.648-4.9638zm51.756-13.815-6.0688 6.0975c-0.715-0.29375-1.495-0.46001-2.3212-0.46001-1.2988 0-2.5063 0.40751-3.4975 1.1038l-7.305-5.5525c-0.3625-0.275-0.9-0.16875-1.2 0.23375l-0.28 0.36875-19.29-17.894 0.42001-1.3475 39.543 17.45zm-12.26-27.3-13.993-12.738 5.4625-5.4875 13.994 12.735-5.4638 5.49zm-15.941-13.525-0.57875 0.64125 0.4175 0.38-2.3738 2.4775 0.115-0.28625-6.98-2.7538 10.199-10.648 4.6238 4.4763-5.555 5.5863 0.1325 0.12625zm14.479-11.804 13.99 12.736-5.9425 5.9713-13.99-12.735 5.9425-5.9725zm3.0988 73.864 3.365-3.3825c2.4788-0.465 4.4288-2.4288 4.8913-4.9163l8.0188-8.0588 7.895 6.9738 0.1425-2.18-6.9163-5.9213 6.7275-6.7388 0.18875-2.6275-16.069 16.198c-0.04-0.20625-0.0937-0.41375-0.15501-0.61625l17.116-17.206-0.055-7.28-12.92 12.906-13.306-5.8738 3.2825-7.7625 0.91125 0.39125 0.17625-0.42125-0.9075-0.39 1.7738-4.1975 2.015 1.8325 1.0675-1.1825-7.3075-6.65 12.529-12.591 12.033 11.093 0.3725-1.8763-19.778-18.083 5.5438-5.5738 14.143 8.5613-0.0925-2.0625-13.614-8.0975-0.11375 0.1925-0.9575-0.96125-6.4825 6.5113-6.08-5.54-0.13 0.14625-0.94375-0.95-8.1963 8.2388-4.6313-4.4838 0.065-0.0662-0.325-0.31625-0.0675 0.0675-0.0575-0.0562-0.31375 0.33125 0.0562 0.0537-10.328 10.786-36.119-14.623-5.455 0.42125 48.235 19.115 0.2275-0.585 3.1425-3.2813 2.1325 1.94-2.51 9.81 0.44 0.1125 2.45-9.575 12.13 11.04-0.12 0.12125 1.4975 1.5075 0.19626-0.1975 4.9938 4.545-1.8412 4.3463-19.256-8.2413-0.1775 0.4225 19.258 8.2375-3.285 7.7588-26.786-11.824 3.28-10.51-1.5875-0.5025-0.0113 0.0337-50.819-20.044 0.4875-4.4075-1.655-0.18625-0.6075 5.5188-0.2225 0.57125 0.1525 0.0625-1.8963 17.153-6.8863-0.56501 2.6038-23.583-1.6525-0.185-2.6113 23.63-9.2788-0.76125 1.0288-16.959 6.7025-5.175-7.9763 0.1175-12.581 9.6175-7.0525-9.5475-2.7975-0.5625 8.2025 11.453-13.975 10.455-0.1525 7.39 27.398-21.924-0.9075 14.961-6.9313-0.57-0.003 0.0288-0.295-0.335-19.4 16.796 0.27875 3.3763 2.985-2.9425 12.479 1.0225-0.0387 6.3688-15.164-1.2963 0.1025 2.2113 24.37 1.9825-0.35875 5.8538-0.13125 0.26625-24.184-2.3712 0.20125 2.3138 22.959 2.0938-12.388 24.654-10.369-8.4488 0.3775 7.0175 7.5913 6.2075-7.2938 15.726-1.1263 6.1913 10.12-20.574 19.198 15.145-12.013 11.335 0.025 0.0238-0.83626 0.735 9.4875 10.949 3.125 0.18375-9.67-10.984 11.565-10.913 18.803 14.836-2.99 8.3925 2.3325-0.18625 2.4213-6.815 8.5825 6.6275 12.405-0.0962 2.705-1.0275 19.546-19.441 35.865 10.693-10.314 9.6688 3.1675 0.60375 8.96-9.7325 19.19 5.5575-0.5325-1.6575-17.379-5.185 1.0875-1.0912 0.2075 0.1875 1.0638-1.1838-0.145-0.13375 5.525-5.5538 9.8213 9.0625 0.0712-2.04-8.7688-8.1563 8.69-8.7363-0.0788-0.0788 0.11-0.1175-23.914-21.766z"/>
  <path style="fill:#b1b1b1" d="m932.75 159.44c0 2.1825-1.7638 3.9563-3.9363 3.9563-2.1738 0-3.935-1.7738-3.935-3.9563 0-2.185 1.7613-3.9575 3.935-3.9575 2.1725 0 3.9363 1.7725 3.9363 3.9575"/>
  <path d="m986.24 121.04h-153.64v128.1h153.64v-128.1zm-1.8588 126.24h-149.92v-124.38h149.92v124.38z" style="fill:#b1b1b1"/>
  <path d="m850.04 263.69h-14.234v-4.6725h14.234v4.6725z" style="fill:#1d1d1b"/>
  <path d="m866.29 263.69h-14.235v-4.6725h14.235v4.6725z" style="fill:#1d1d1b"/>
  <path d="m880.1 263.69h-14.235v-4.6725h14.235v4.6725z" style="fill:#1d1d1b"/>
  <path d="m850.04 270.91h-14.234v-4.6725h14.234v4.6725z" style="fill:#1d1d1b"/>
  <path d="m863.85 270.91h-14.234v-4.6725h14.234v4.6725z" style="fill:#1d1d1b"/>
  <path d="m880.1 270.91h-14.235v-4.6725h14.235v4.6725z" style="fill:#1d1d1b"/>
 </g>
</svg>
