<!-- Created with Inkscape (http://www.inkscape.org/) -->
<svg xmlns:rdf="http://www.w3.org/1999/02/22-rdf-syntax-ns#" xmlns="http://www.w3.org/2000/svg" height="79.116mm" width="56.276mm" version="1.1" xmlns:cc="http://creativecommons.org/ns#" xmlns:xlink="http://www.w3.org/1999/xlink" viewBox="0 0 199.40379 280.33246" xmlns:dc="http://purl.org/dc/elements/1.1/">
 <g transform="translate(-131.48 -154.2)">
  <path style="fill:#3c3c3b" d="m171.38 388.33-4.0325-1.38 4.0325-1.3775v2.7575z"/>
  <path style="fill:#3c3c3b" d="m177.47 385.57 4.0275 1.3788-4.0275 1.3788v-2.7575z"/>
  <path d="m330.88 434.53h-199.4v-280.33h199.4v280.33z" style="fill:#f5f5f5"/>
  <path d="m315.75 417.03h-169.14v-223.31h169.14v223.31z" style="fill:#fff"/>
  <path style="fill:#3c3c3b" d="m215.23 179.48h1.7962l-0.925-6.1912h-0.019l-0.8525 6.1912zm0.01-8.36h1.6562l1.9363 11.715h-1.2988l-0.3325-2.2362h-2.1212l-0.3088 2.2362h-1.31l1.7788-11.715z"/>
  <path style="fill:#3c3c3b" d="m223.41 173.99c0-0.9025-0.08-1.4238-0.2438-1.565-0.1587-0.1425-0.3962-0.21375-0.7012-0.21375h-0.8638v3.9538h0.8775c0.265 0 0.4613-0.0512 0.585-0.1525 0.1238-0.1025 0.2125-0.29625 0.2688-0.58625 0.051-0.28875 0.077-0.74 0.077-1.3575v-0.0788zm-3.1875-2.87h2.455c0.6975 0 1.1975 0.14375 1.5062 0.43375 0.305 0.2875 0.49 0.7775 0.5525 1.47 0.025 0.28375 0.04 0.7275 0.04 1.3288 0 0.60125-0.08 1.105-0.2375 1.5138-0.1575 0.4075-0.4362 0.67125-0.835 0.7925 0.2913 0.0488 0.5138 0.2025 0.6663 0.46125 0.1512 0.26125 0.2562 0.6725 0.3162 1.2375 0.062 0.56625 0.095 1.4075 0.095 2.5238 0 1.115 0.035 1.7675 0.1075 1.9538h-1.3712c-0.072-0.1425-0.1075-1.4575-0.1075-3.9462 0-0.84-0.08-1.3275-0.245-1.4612-0.165-0.13625-0.4138-0.2025-0.7463-0.2025l-0.8175-0.0475v5.6575h-1.3787v-11.715z"/>
  <path style="fill:#3c3c3b" d="m225.8 171.12h3.8675v1.145h-1.2063v10.57h-1.37v-10.57h-1.2912v-1.145z"/>
  <path d="m230.92 171.12h1.3775v11.715h-1.3775v-11.715z" style="fill:#3c3c3b"/>
  <path style="fill:#3c3c3b" d="m234.18 174.5c0-0.8875 0.075-1.5388 0.22-1.9562 0.1463-0.4175 0.3063-0.72375 0.48-0.92 0.3763-0.42625 0.9263-0.64 1.65-0.645 1.0113 0.005 1.6638 0.45125 1.9563 1.3375 0.1675 0.51125 0.2537 1.1888 0.2537 2.0375v1.2988h-1.3512v-1.305c0-0.75-0.04-1.2575-0.1238-1.5212-0.081-0.26375-0.1825-0.43875-0.2962-0.52625-0.1138-0.0862-0.2625-0.13-0.4388-0.13-0.3675 0-0.6237 0.17375-0.7612 0.5225-0.1413 0.34875-0.21 0.8975-0.21 1.6475v5.0725c0 0.8875 0.064 1.5075 0.19 1.8588 0.1237 0.35375 0.37 0.53125 0.7312 0.53125 0.3625 0 0.6025-0.17875 0.725-0.53375s0.1838-0.975 0.1838-1.8638v-1.2975h1.3637v1.2838c0 1.23-0.1675 2.1338-0.5012 2.7125-0.3375 0.58-0.92 0.86875-1.7538 0.86875-0.8337 0-1.4287-0.29875-1.785-0.895-0.355-0.59625-0.5325-1.4962-0.5325-2.6988v-4.8788z"/>
  <path style="fill:#3c3c3b" d="m240.43 171.12h1.3775v10.578h2.1625v1.1375h-3.54v-11.715z"/>
  <path style="fill:#3c3c3b" d="m245.17 171.12h3.5025v1.145h-2.125v4.0062h2.01v1.145h-2.01v4.2738h2.15v1.145h-3.5275v-11.715z"/>
  <path d="m187.11 226.32h-27.525v-6.51h27.525v6.51z" style="fill:#9c9b9b"/>
  <path d="m224.18 226.32h-27.525v-6.51h27.525v6.51z" style="fill:#9c9b9b"/>
  <path style="fill:#9c9b9b" d="m191.2 219.82h0.6737l-1.6162 6.4838h-0.6688l1.6113-6.4838z"/>
  <path style="fill:#9c9b9b" d="m194.07 219.82h0.6737l-1.6137 6.4838h-0.6688l1.6088-6.4838z"/>
  <path d="m193.75 261.58h-34.975v-25.376h34.975v25.376z" style="fill:#575756"/>
  <path d="m313.39 269.85h-27.62v-25.949h27.62v25.949z" style="fill:#b1b1b1"/>
  <path d="m313.39 299.94h-27.62v-25.948h27.62v25.948z" style="fill:#b1b1b1"/>
  <path d="m313.39 330.04h-27.62v-25.949h27.62v25.949z" style="fill:#b1b1b1"/>
  <path d="m313.39 360.13h-27.62v-25.95h27.62v25.95z" style="fill:#b1b1b1"/>
  <path d="m193.75 291.22h-34.975v-25.374h34.975v25.374z" style="fill:#575756"/>
  <path style="fill:#d9d9d9" d="m181.51 357.04h-1.4063c0-2.3725-1.9887-4.3025-4.4362-4.3025-2.4488 0-4.4375 1.93-4.4375 4.3025h-1.4063c0-3.1512 2.6213-5.71 5.8438-5.71 3.2212 0 5.8425 2.5588 5.8425 5.71"/>
  <path style="fill:#d9d9d9" d="m175.67 344.56c-1.3537 0-2.4487 1.1012-2.4487 2.4525 0 1.35 1.095 2.4475 2.4487 2.4475 1.3513 0 2.45-1.0975 2.45-2.4475 0-1.3512-1.1012-2.4525-2.45-2.4525m0 6.3088c-2.1237 0-3.855-1.7312-3.855-3.8562 0-2.1275 1.7288-3.8575 3.855-3.8575 2.1275 0 3.8563 1.73 3.8563 3.8575 0 2.125-1.7288 3.8562-3.8563 3.8562"/>
  <path style="fill:#9c9b9b" d="m201.98 236.74c0-0.45875 0.3675-0.83 0.825-0.83 0.4587 0 0.8312 0.37125 0.8312 0.83 0 0.4575-0.3725 0.8275-0.8312 0.8275-0.4575 0-0.825-0.37-0.825-0.8275"/>
  <path style="fill:#9c9b9b" d="m204.65 236.74c0-0.45875 0.3725-0.83 0.83-0.83 0.4588 0 0.8288 0.37125 0.8288 0.83 0 0.4575-0.37 0.8275-0.8288 0.8275-0.4575 0-0.83-0.37-0.83-0.8275"/>
  <path style="fill:#9c9b9b" d="m207.33 236.74c0-0.45875 0.37-0.83 0.8312-0.83 0.4575 0 0.83 0.37125 0.83 0.83 0 0.4575-0.3725 0.8275-0.83 0.8275-0.4612 0-0.8312-0.37-0.8312-0.8275"/>
  <path style="fill:#9c9b9b" d="m210.01 236.74c0-0.45875 0.3713-0.83 0.8288-0.83 0.4587 0 0.8287 0.37125 0.8287 0.83 0 0.4575-0.37 0.8275-0.8287 0.8275-0.4575 0-0.8288-0.37-0.8288-0.8275"/>
  <path style="fill:#9c9b9b" d="m212.69 236.74c0-0.45875 0.37-0.83 0.83-0.83 0.4588 0 0.8263 0.37125 0.8263 0.83 0 0.4575-0.3675 0.8275-0.8263 0.8275-0.46 0-0.83-0.37-0.83-0.8275"/>
  <path style="fill:#9c9b9b" d="m215.37 236.74c0-0.45875 0.37-0.83 0.8312-0.83 0.4575 0 0.8275 0.37125 0.8275 0.83 0 0.4575-0.37 0.8275-0.8275 0.8275-0.4612 0-0.8312-0.37-0.8312-0.8275"/>
  <path style="fill:#9c9b9b" d="m218.63 236.74c0-0.45875 0.3725-0.83 0.8275-0.83 0.4587 0 0.8312 0.37125 0.8312 0.83 0 0.4575-0.3725 0.8275-0.8312 0.8275-0.455 0-0.8275-0.37-0.8275-0.8275"/>
  <path style="fill:#9c9b9b" d="m221.31 236.74c0-0.45875 0.3725-0.83 0.8288-0.83 0.46 0 0.8275 0.37125 0.8275 0.83 0 0.4575-0.3675 0.8275-0.8275 0.8275-0.4563 0-0.8288-0.37-0.8288-0.8275"/>
  <path style="fill:#9c9b9b" d="m223.99 236.74c0-0.45875 0.3725-0.83 0.8287-0.83 0.4613 0 0.8313 0.37125 0.8313 0.83 0 0.4575-0.37 0.8275-0.8313 0.8275-0.4562 0-0.8287-0.37-0.8287-0.8275"/>
  <path style="fill:#9c9b9b" d="m226.67 236.74c0-0.45875 0.37-0.83 0.8275-0.83 0.4562 0 0.8287 0.37125 0.8287 0.83 0 0.4575-0.3725 0.8275-0.8287 0.8275-0.4575 0-0.8275-0.37-0.8275-0.8275"/>
  <path style="fill:#9c9b9b" d="m229.35 236.74c0-0.45875 0.37-0.83 0.8288-0.83 0.4575 0 0.8275 0.37125 0.8275 0.83 0 0.4575-0.37 0.8275-0.8275 0.8275-0.4588 0-0.8288-0.37-0.8288-0.8275"/>
  <path style="fill:#9c9b9b" d="m232.02 236.74c0-0.45875 0.3737-0.83 0.8337-0.83 0.455 0 0.8263 0.37125 0.8263 0.83 0 0.4575-0.3713 0.8275-0.8263 0.8275-0.46 0-0.8337-0.37-0.8337-0.8275"/>
  <path style="fill:#9c9b9b" d="m235.29 236.74c0-0.45875 0.3725-0.83 0.83-0.83 0.4588 0 0.8288 0.37125 0.8288 0.83 0 0.4575-0.37 0.8275-0.8288 0.8275-0.4575 0-0.83-0.37-0.83-0.8275"/>
  <path style="fill:#9c9b9b" d="m237.97 236.74c0-0.45875 0.3725-0.83 0.8288-0.83 0.4575 0 0.8287 0.37125 0.8287 0.83 0 0.4575-0.3712 0.8275-0.8287 0.8275-0.4563 0-0.8288-0.37-0.8288-0.8275"/>
  <path style="fill:#9c9b9b" d="m240.64 236.74c0-0.45875 0.3725-0.83 0.83-0.83 0.4588 0 0.8288 0.37125 0.8288 0.83 0 0.4575-0.37 0.8275-0.8288 0.8275-0.4575 0-0.83-0.37-0.83-0.8275"/>
  <path style="fill:#9c9b9b" d="m243.32 236.74c0-0.45875 0.37-0.83 0.8287-0.83 0.4575 0 0.83 0.37125 0.83 0.83 0 0.4575-0.3725 0.8275-0.83 0.8275-0.4587 0-0.8287-0.37-0.8287-0.8275"/>
  <path style="fill:#9c9b9b" d="m246 236.74c0-0.45875 0.3725-0.83 0.8313-0.83 0.4575 0 0.8275 0.37125 0.8275 0.83 0 0.4575-0.37 0.8275-0.8275 0.8275-0.4588 0-0.8313-0.37-0.8313-0.8275"/>
  <path style="fill:#9c9b9b" d="m248.68 236.74c0-0.45875 0.3725-0.83 0.83-0.83 0.4563 0 0.8288 0.37125 0.8288 0.83 0 0.4575-0.3725 0.8275-0.8288 0.8275-0.4575 0-0.83-0.37-0.83-0.8275"/>
  <path style="fill:#9c9b9b" d="m251.94 236.74c0-0.45875 0.3725-0.83 0.8288-0.83 0.4575 0 0.83 0.37125 0.83 0.83 0 0.4575-0.3725 0.8275-0.83 0.8275-0.4563 0-0.8288-0.37-0.8288-0.8275"/>
  <path style="fill:#9c9b9b" d="m254.62 236.74c0-0.45875 0.3712-0.83 0.83-0.83 0.4562 0 0.8287 0.37125 0.8287 0.83 0 0.4575-0.3725 0.8275-0.8287 0.8275-0.4588 0-0.83-0.37-0.83-0.8275"/>
  <path style="fill:#9c9b9b" d="m257.3 236.74c0-0.45875 0.3725-0.83 0.8275-0.83 0.4613 0 0.8313 0.37125 0.8313 0.83 0 0.4575-0.37 0.8275-0.8313 0.8275-0.455 0-0.8275-0.37-0.8275-0.8275"/>
  <path style="fill:#9c9b9b" d="m259.98 236.74c0-0.45875 0.37-0.83 0.8287-0.83 0.455 0 0.8275 0.37125 0.8275 0.83 0 0.4575-0.3725 0.8275-0.8275 0.8275-0.4587 0-0.8287-0.37-0.8287-0.8275"/>
  <path style="fill:#9c9b9b" d="m262.66 236.74c0-0.45875 0.3738-0.83 0.8313-0.83 0.455 0 0.8287 0.37125 0.8287 0.83 0 0.4575-0.3737 0.8275-0.8287 0.8275-0.4575 0-0.8313-0.37-0.8313-0.8275"/>
  <path style="fill:#9c9b9b" d="m265.34 236.74c0-0.45875 0.375-0.83 0.8325-0.83 0.4563 0 0.8288 0.37125 0.8288 0.83 0 0.4575-0.3725 0.8275-0.8288 0.8275-0.4575 0-0.8325-0.37-0.8325-0.8275"/>
  <path style="fill:#9c9b9b" d="m201.98 377.3c0-0.4575 0.3675-0.8275 0.825-0.8275 0.4587 0 0.8312 0.37 0.8312 0.8275 0 0.45875-0.3725 0.83-0.8312 0.83-0.4575 0-0.825-0.37125-0.825-0.83"/>
  <path style="fill:#9c9b9b" d="m204.65 377.3c0-0.4575 0.3725-0.8275 0.83-0.8275 0.4588 0 0.8288 0.37 0.8288 0.8275 0 0.45875-0.37 0.83-0.8288 0.83-0.4575 0-0.83-0.37125-0.83-0.83"/>
  <path style="fill:#9c9b9b" d="m207.33 377.3c0-0.4575 0.37-0.8275 0.8312-0.8275 0.4575 0 0.83 0.37 0.83 0.8275 0 0.45875-0.3725 0.83-0.83 0.83-0.4612 0-0.8312-0.37125-0.8312-0.83"/>
  <path style="fill:#9c9b9b" d="m210.01 377.3c0-0.4575 0.3713-0.8275 0.8288-0.8275 0.4587 0 0.8287 0.37 0.8287 0.8275 0 0.45875-0.37 0.83-0.8287 0.83-0.4575 0-0.8288-0.37125-0.8288-0.83"/>
  <path style="fill:#9c9b9b" d="m212.69 377.3c0-0.4575 0.37-0.8275 0.83-0.8275 0.4588 0 0.8263 0.37 0.8263 0.8275 0 0.45875-0.3675 0.83-0.8263 0.83-0.46 0-0.83-0.37125-0.83-0.83"/>
  <path style="fill:#9c9b9b" d="m215.37 377.3c0-0.4575 0.37-0.8275 0.8312-0.8275 0.4575 0 0.8275 0.37 0.8275 0.8275 0 0.45875-0.37 0.83-0.8275 0.83-0.4612 0-0.8312-0.37125-0.8312-0.83"/>
  <path style="fill:#9c9b9b" d="m218.63 377.3c0-0.4575 0.3725-0.8275 0.8275-0.8275 0.4587 0 0.8312 0.37 0.8312 0.8275 0 0.45875-0.3725 0.83-0.8312 0.83-0.455 0-0.8275-0.37125-0.8275-0.83"/>
  <path style="fill:#9c9b9b" d="m221.31 377.3c0-0.4575 0.3725-0.8275 0.8288-0.8275 0.46 0 0.8275 0.37 0.8275 0.8275 0 0.45875-0.3675 0.83-0.8275 0.83-0.4563 0-0.8288-0.37125-0.8288-0.83"/>
  <path style="fill:#9c9b9b" d="m223.99 377.3c0-0.4575 0.3725-0.8275 0.8287-0.8275 0.4613 0 0.8313 0.37 0.8313 0.8275 0 0.45875-0.37 0.83-0.8313 0.83-0.4562 0-0.8287-0.37125-0.8287-0.83"/>
  <path style="fill:#9c9b9b" d="m226.67 377.3c0-0.4575 0.37-0.8275 0.8275-0.8275 0.4562 0 0.8287 0.37 0.8287 0.8275 0 0.45875-0.3725 0.83-0.8287 0.83-0.4575 0-0.8275-0.37125-0.8275-0.83"/>
  <path style="fill:#9c9b9b" d="m229.35 377.3c0-0.4575 0.37-0.8275 0.8288-0.8275 0.4575 0 0.8275 0.37 0.8275 0.8275 0 0.45875-0.37 0.83-0.8275 0.83-0.4588 0-0.8288-0.37125-0.8288-0.83"/>
  <path style="fill:#9c9b9b" d="m232.02 377.3c0-0.4575 0.3737-0.8275 0.8337-0.8275 0.455 0 0.8263 0.37 0.8263 0.8275 0 0.45875-0.3713 0.83-0.8263 0.83-0.46 0-0.8337-0.37125-0.8337-0.83"/>
  <path style="fill:#9c9b9b" d="m235.29 377.3c0-0.4575 0.3725-0.8275 0.83-0.8275 0.4588 0 0.8288 0.37 0.8288 0.8275 0 0.45875-0.37 0.83-0.8288 0.83-0.4575 0-0.83-0.37125-0.83-0.83"/>
  <path style="fill:#9c9b9b" d="m237.97 377.3c0-0.4575 0.3725-0.8275 0.8288-0.8275 0.4575 0 0.8287 0.37 0.8287 0.8275 0 0.45875-0.3712 0.83-0.8287 0.83-0.4563 0-0.8288-0.37125-0.8288-0.83"/>
  <path style="fill:#9c9b9b" d="m240.64 377.3c0-0.4575 0.3725-0.8275 0.83-0.8275 0.4588 0 0.8288 0.37 0.8288 0.8275 0 0.45875-0.37 0.83-0.8288 0.83-0.4575 0-0.83-0.37125-0.83-0.83"/>
  <path style="fill:#9c9b9b" d="m243.32 377.3c0-0.4575 0.37-0.8275 0.8287-0.8275 0.4575 0 0.83 0.37 0.83 0.8275 0 0.45875-0.3725 0.83-0.83 0.83-0.4587 0-0.8287-0.37125-0.8287-0.83"/>
  <path style="fill:#9c9b9b" d="m246 377.3c0-0.4575 0.3725-0.8275 0.8313-0.8275 0.4575 0 0.8275 0.37 0.8275 0.8275 0 0.45875-0.37 0.83-0.8275 0.83-0.4588 0-0.8313-0.37125-0.8313-0.83"/>
  <path style="fill:#9c9b9b" d="m248.68 377.3c0-0.4575 0.3725-0.8275 0.83-0.8275 0.4563 0 0.8288 0.37 0.8288 0.8275 0 0.45875-0.3725 0.83-0.8288 0.83-0.4575 0-0.83-0.37125-0.83-0.83"/>
  <path style="fill:#9c9b9b" d="m251.94 377.3c0-0.4575 0.3725-0.8275 0.8288-0.8275 0.4575 0 0.83 0.37 0.83 0.8275 0 0.45875-0.3725 0.83-0.83 0.83-0.4563 0-0.8288-0.37125-0.8288-0.83"/>
  <path style="fill:#9c9b9b" d="m254.62 377.3c0-0.4575 0.3712-0.8275 0.83-0.8275 0.4562 0 0.8287 0.37 0.8287 0.8275 0 0.45875-0.3725 0.83-0.8287 0.83-0.4588 0-0.83-0.37125-0.83-0.83"/>
  <path style="fill:#9c9b9b" d="m257.3 377.3c0-0.4575 0.3725-0.8275 0.8275-0.8275 0.4613 0 0.8313 0.37 0.8313 0.8275 0 0.45875-0.37 0.83-0.8313 0.83-0.455 0-0.8275-0.37125-0.8275-0.83"/>
  <path style="fill:#9c9b9b" d="m259.98 377.3c0-0.4575 0.37-0.8275 0.8287-0.8275 0.455 0 0.8275 0.37 0.8275 0.8275 0 0.45875-0.3725 0.83-0.8275 0.83-0.4587 0-0.8287-0.37125-0.8287-0.83"/>
  <path style="fill:#9c9b9b" d="m262.66 377.3c0-0.4575 0.3738-0.8275 0.8313-0.8275 0.455 0 0.8287 0.37 0.8287 0.8275 0 0.45875-0.3737 0.83-0.8287 0.83-0.4575 0-0.8313-0.37125-0.8313-0.83"/>
  <path style="fill:#9c9b9b" d="m265.34 377.3c0-0.4575 0.375-0.8275 0.8325-0.8275 0.4563 0 0.8288 0.37 0.8288 0.8275 0 0.45875-0.3725 0.83-0.8288 0.83-0.4575 0-0.8325-0.37125-0.8325-0.83"/>
  <path d="m266.85 249.15h-61.706v-3.9962h61.706v3.9962z" style="fill:#b1b1b1"/>
  <path d="m266.85 255.21h-61.706v-3.9938h61.706v3.9938z" style="fill:#b1b1b1"/>
  <path d="m266.85 261.26h-61.706v-3.9938h61.706v3.9938z" style="fill:#b1b1b1"/>
  <path d="m266.85 267h-61.706v-3.995h61.706v3.995z" style="fill:#b1b1b1"/>
  <path d="m266.85 273.05h-61.706v-3.9938h61.706v3.9938z" style="fill:#b1b1b1"/>
  <path d="m266.85 279.11h-61.706v-3.9938h61.706v3.9938z" style="fill:#b1b1b1"/>
  <path d="m266.85 284.84h-61.706v-3.9938h61.706v3.9938z" style="fill:#b1b1b1"/>
  <path d="m266.85 290.9h-61.706v-3.9925h61.706v3.9925z" style="fill:#b1b1b1"/>
  <path d="m266.85 296.95h-61.706v-3.9962h61.706v3.9962z" style="fill:#b1b1b1"/>
  <path d="m266.85 302.69h-61.706v-3.995h61.706v3.995z" style="fill:#b1b1b1"/>
  <path d="m266.85 308.75h-61.706v-3.9962h61.706v3.9962z" style="fill:#b1b1b1"/>
  <path d="m266.85 314.8h-61.706v-3.995h61.706v3.995z" style="fill:#b1b1b1"/>
  <path d="m266.85 320.53h-61.706v-3.995h61.706v3.995z" style="fill:#b1b1b1"/>
  <path d="m266.85 326.59h-61.706v-3.9975h61.706v3.9975z" style="fill:#b1b1b1"/>
  <path d="m266.85 332.64h-61.706v-3.995h61.706v3.995z" style="fill:#b1b1b1"/>
  <path d="m266.85 338.38h-61.706v-3.995h61.706v3.995z" style="fill:#b1b1b1"/>
  <path d="m266.85 344.43h-61.706v-3.9962h61.706v3.9962z" style="fill:#b1b1b1"/>
  <path d="m266.85 350.49h-61.706v-3.9962h61.706v3.9962z" style="fill:#b1b1b1"/>
  <path d="m266.85 356.22h-61.706v-3.995h61.706v3.995z" style="fill:#b1b1b1"/>
  <path d="m266.85 362.28h-61.706v-3.995h61.706v3.995z" style="fill:#b1b1b1"/>
  <path d="m266.85 368.33h-61.706v-3.995h61.706v3.995z" style="fill:#b1b1b1"/>
  <path d="m193.67 366.21h-35.205v-3.9962h35.205v3.9962z" style="fill:#575756"/>
  <path d="m193.67 372.26h-35.205v-3.9962h35.205v3.9962z" style="fill:#575756"/>
  <path d="m193.67 378.32h-35.205v-3.995h35.205v3.995z" style="fill:#575756"/>
  <path style="fill:#f5f5f5" d="m175.42 280.77v-4.1125l2.9475 2.055-2.9475 2.0575zm1.15-6.8425c-2.6413 0-4.7863 2.1425-4.7863 4.785 0 2.6438 2.145 4.7875 4.7863 4.7875 2.6437 0 4.785-2.1438 4.785-4.7875 0-2.6425-2.1413-4.785-4.785-4.785"/>
  <path style="fill:#f5f5f5" d="m175.42 276.66v4.1125"/>
  <path style="fill:#f5f5f5" d="m174.77 248.87 2.9475-2.0562v4.1138l-2.9475-2.0575zm-2.9875 0c0 2.6425 2.1425 4.7875 4.7862 4.7875 2.6425 0 4.7863-2.145 4.7863-4.7875 0-2.64-2.1438-4.7838-4.7863-4.7838-2.6437 0-4.7862 2.1438-4.7862 4.7838"/>
  <path style="fill:#f5f5f5" d="m177.72 246.81v4.1138"/>
  <path style="fill:#d9d9d9" d="m187.67 356.99 3.7125-5.4388c0.1713-0.25 0.105-0.59375-0.145-0.76625l-0.455-0.31125c-0.2525-0.17-0.5962-0.10625-0.7687 0.145l-3.07 4.4975-1.3463-0.96375c-0.2475-0.17625-0.5925-0.12-0.7687 0.13125l-0.32 0.44625c-0.1788 0.25125-0.1213 0.59375 0.1262 0.77125l2.2763 1.6212c0.245 0.17875 0.5862 0.1175 0.7587-0.1325"/>
 </g>
</svg>
